<svg width="42" height="42" viewBox="0 0 42 42" fill="none" xmlns="http://www.w3.org/2000/svg">
<g clip-path="url(#clip0_115_302)">
<path fill-rule="evenodd" clip-rule="evenodd" d="M11.9496 0H30.0474C31.8045 0 33.2548 1.4503 33.2548 3.20741V38.7928C33.2548 40.5499 31.8045 42.0002 30.0474 42.0002H11.9496C10.1925 42.0002 8.74219 40.5499 8.74219 38.7928V3.20741C8.74219 1.4503 10.1925 0 11.9496 0V0ZM18.8221 39.0978C18.3643 39.0978 18.0592 38.7926 18.0592 38.3349C18.0592 37.8772 18.3643 37.572 18.8221 37.572H23.2518C23.6341 37.572 24.0147 37.8772 24.0147 38.3349C24.0147 38.7926 23.6324 39.0978 23.2518 39.0978H18.8221ZM10.8799 5.19246V34.6697H31.1923V5.19246H10.8799Z" fill="#4A86E8"/>
</g>
<defs>
<clipPath id="clip0_115_302">
<rect width="42" height="42" fill="white"/>
</clipPath>
</defs>
</svg>
