<svg width="740" height="370" viewBox="0 0 740 370" fill="none" xmlns="http://www.w3.org/2000/svg">
<path d="M490.865 101.5H503.546V146.197H490.865V101.5Z" stroke="#DBDBDB"/>
<path d="M176.229 133.542H175.729V134.042V146.197H162.5V101.5H207.15C215.718 101.5 222.648 108.201 222.385 116.513L222.384 116.521V116.529V118.581C222.384 126.782 215.636 133.542 207.15 133.542H176.229ZM175.729 123.712V124.212H176.229H203.593C207.214 124.212 210.318 121.19 210.318 117.555C210.318 113.927 207.221 110.83 203.593 110.83H176.229H175.729V111.33V123.712Z" stroke="#DBDBDB"/>
<path d="M474.629 131.024L474.238 131.281L474.468 131.688L482.666 146.198H467.805L460.698 133.793L460.554 133.542H460.264H435.5H435V134.042V146.266H421.771V101.569H466.421C474.908 101.569 481.655 108.261 481.655 116.529V118.308C481.655 123.799 478.882 128.233 474.629 131.024ZM435.363 110.83H434.863V111.33V123.712V123.78V124.28H435.363H462.727C466.355 124.28 469.452 121.183 469.452 117.555C469.452 113.927 466.355 110.83 462.727 110.83H435.363Z" stroke="#DBDBDB"/>
<path d="M528.057 118.534H558.5C565.932 118.534 571.955 124.992 571.955 132.468C571.955 139.922 565.954 145.924 558.5 145.924H513.576V136.115H555.9C557.955 136.115 559.752 134.318 559.752 132.263C559.752 130.208 557.955 128.411 555.9 128.411H525.458C518.004 128.411 512.002 122.41 512.002 114.955C512.002 107.501 518.004 101.5 525.458 101.5H567.03V110.83H528.057C526.003 110.83 524.205 112.627 524.205 114.682C524.205 116.737 526.003 118.534 528.057 118.534Z" stroke="#DBDBDB"/>
<path d="M279.177 108.9L279.545 107.88L278.53 108.262L267.402 112.452L264.123 101.5H281.032C288.213 101.5 294.214 107.501 294.214 114.682V121.835L275.486 119.132L279.177 108.9Z" stroke="#DBDBDB"/>
<path d="M264.123 145.855L267.402 134.903L278.53 139.093L279.545 139.475L279.177 138.455L275.486 128.224L294.214 125.52V132.673C294.214 139.854 288.213 145.855 281.032 145.855H264.123Z" stroke="#DBDBDB"/>
<path d="M260.454 101.5L257.174 112.452L246.046 108.262L245.032 107.88L245.4 108.9L249.091 119.132L230.362 121.835V114.682C230.362 107.428 236.095 101.5 243.544 101.5H260.454Z" stroke="#DBDBDB"/>
<path d="M245.4 138.455L245.032 139.475L246.046 139.093L257.174 134.903L260.454 145.855H243.544C236.364 145.855 230.362 139.854 230.362 132.673V125.52L249.091 128.224L245.4 138.455Z" stroke="#DBDBDB"/>
<path d="M318.725 136.389H346.136V145.992H312.295C307.365 145.992 303.217 142.036 303.217 136.915V101.5H315.899V133.494C315.899 135.306 317.113 136.594 318.725 136.594V136.389Z" stroke="#DBDBDB"/>
<path d="M366.749 133.542H366.249V134.042V145.924H353.567V116.46C353.567 108.26 360.315 101.5 368.801 101.5H398.217C406.703 101.5 413.452 108.191 413.52 116.462V146.197H400.838V134.042V133.542H400.338H366.749ZM366.18 123.712V124.212H366.68H400.269H400.338H400.838V123.712V116.255C400.838 113.38 398.288 110.83 395.412 110.83H383.509H371.606C368.439 110.83 366.18 113.398 366.18 116.255V123.712Z" stroke="#DBDBDB"/>
</svg>
