<svg width="740" height="370" viewBox="0 0 740 370" fill="none" xmlns="http://www.w3.org/2000/svg">
<mask id="path-1-inside-1_397_403" fill="white">
<path d="M348.19 316.051C344.788 303.191 341.469 290.413 338.067 277.553C339.146 277.055 340.224 276.557 341.22 276.059C347.609 272.824 354.246 270.086 360.718 267.099C376.814 259.631 391.832 250.505 406.02 239.884C418.465 230.592 430.33 220.552 441.033 209.185C449.33 200.391 456.964 191.015 462.937 180.478C468.579 170.438 472.728 159.901 474.636 148.534C476.959 134.927 475.466 121.818 469.243 109.372C462.689 96.263 452.815 86.3896 439.789 79.669C430.994 75.1056 421.784 72.4506 411.994 71.289C404.858 70.4593 397.723 70.3763 390.504 71.123C378.972 72.2846 367.854 75.2716 357.067 79.503C339.81 86.1407 323.547 94.8525 307.949 104.726C302.556 108.211 297.08 111.53 292.019 115.595C288.202 118.665 284.634 122.067 281.565 125.883C279.407 128.621 277.914 131.691 277.25 135.176C276.337 140.154 279.158 145.381 285.879 145.879C288.202 146.045 290.525 145.63 292.683 144.884C296.997 143.473 300.98 141.316 304.962 139.242C312.429 135.259 319.399 130.613 326.534 126.049C335.163 120.573 343.792 115.014 352.836 110.368C360.137 106.634 367.688 103.564 375.736 101.905C386.19 99.8307 396.395 100.412 406.103 104.892C416.557 109.704 423.029 117.918 425.352 129.202C426.762 135.923 425.518 142.56 423.112 148.949C420.623 155.753 416.474 161.644 411.745 167.037C403.033 176.993 392.911 185.373 381.627 192.177C369.845 199.229 358.063 206.281 346.032 212.836C333.919 219.474 321.224 224.535 308.115 228.683C301.809 230.675 295.504 232.666 288.949 234.076C280.154 235.985 271.276 236.897 262.315 236.566C252.525 236.151 242.983 234.408 234.023 230.094C218.756 222.71 208.966 210.845 204.651 194.5C203.075 188.526 202.328 182.386 202.411 176.163C202.577 164.547 205.066 153.264 209.298 142.477C213.695 131.359 219.918 121.237 227.053 111.695C236.097 99.5818 246.717 89.0446 258.25 79.4201C271.276 68.551 284.966 58.6775 299.569 49.9656C306.373 45.9001 313.342 42.2494 320.312 38.5158C320.478 38.4328 320.644 38.3498 321.058 38.2668C322.801 41.9175 324.626 45.5682 326.368 49.2189C325.788 50.1316 324.958 50.2975 324.294 50.7124C315.997 55.1098 307.7 59.5902 299.652 64.5684C281.979 75.6864 265.634 88.3809 251.28 103.564C241.49 113.936 233.608 125.634 228.464 138.993C225.477 146.709 223.817 154.757 223.9 163.054C223.983 168.862 224.73 174.587 226.721 180.063C229.874 188.858 235.433 195.578 243.481 200.391C250.036 204.29 257.171 206.281 264.722 206.945C276.586 208.024 287.953 205.784 299.154 202.299C315.665 197.155 331.181 189.936 346.198 181.473C354.827 176.578 363.456 171.517 371.587 165.875C377.395 161.892 382.705 157.246 387.518 152.102C389.924 149.53 391.915 146.792 393.242 143.556C394.57 140.403 395.151 137.167 394.321 133.849C393.077 128.538 389.426 125.469 384.282 124.224C380.216 123.145 376.151 123.56 372.085 124.805C367.605 126.215 363.456 128.29 359.391 130.447C352.172 134.263 345.286 138.578 338.399 142.975C329.272 148.866 320.063 154.757 310.438 159.818C304.298 163.054 298.076 165.875 291.355 167.7C286.045 169.111 280.735 169.775 275.176 169.111C265.385 167.866 257.171 161.561 255.263 150.608C254.516 146.211 255.014 141.897 256.176 137.582C258.167 130.115 262.067 123.726 267.045 117.918C273.433 110.451 280.818 104.062 288.949 98.5862C304.713 87.966 320.892 78.0925 338.15 70.1274C350.762 64.2365 363.788 59.1753 377.312 55.8565C385.111 53.9482 392.994 52.6207 401.042 51.9569C407.181 51.4591 413.238 51.3761 419.378 51.708C440.204 52.8696 459.619 58.5116 476.793 70.6252C492.807 81.9921 504.257 96.8438 510.562 115.512C513.798 125.137 514.794 135.01 514.545 145.132C514.296 155.172 512.222 164.879 509.152 174.338C503.759 191.264 494.964 206.281 484.178 220.22C475.798 231.173 466.09 240.88 455.968 250.173C449.081 256.478 442.112 262.784 434.728 268.509C422.531 277.968 409.588 286.265 396.229 293.981C383.535 301.282 370.094 307.339 356.487 312.732C353.666 313.728 351.094 314.889 348.19 316.051Z"/>
</mask>
<path d="M348.19 316.051L347.223 316.307L347.512 317.399L348.561 316.98L348.19 316.051ZM338.067 277.553L337.648 276.645L336.886 276.997L337.101 277.809L338.067 277.553ZM341.22 276.059L341.667 276.954L341.672 276.952L341.22 276.059ZM360.718 267.099L361.137 268.007L361.139 268.006L360.718 267.099ZM406.02 239.884L405.422 239.083L405.421 239.084L406.02 239.884ZM441.033 209.185L440.306 208.499L440.305 208.5L441.033 209.185ZM462.937 180.478L463.807 180.971L463.809 180.968L462.937 180.478ZM474.636 148.534L473.65 148.366L473.65 148.369L474.636 148.534ZM469.243 109.372L468.349 109.82L469.243 109.372ZM439.789 79.669L439.328 80.5566L439.33 80.5577L439.789 79.669ZM411.994 71.289L412.112 70.2959L412.109 70.2957L411.994 71.289ZM390.504 71.123L390.605 72.118L390.607 72.1177L390.504 71.123ZM357.067 79.503L357.426 80.4364L357.433 80.434L357.067 79.503ZM307.949 104.726L307.414 103.881L307.406 103.886L307.949 104.726ZM292.019 115.595L291.393 114.815L291.392 114.816L292.019 115.595ZM281.565 125.883L280.785 125.257L280.779 125.264L281.565 125.883ZM277.25 135.176L276.268 134.989L276.267 134.996L277.25 135.176ZM285.879 145.879L285.805 146.876L285.808 146.877L285.879 145.879ZM292.683 144.884L292.372 143.933L292.364 143.936L292.355 143.939L292.683 144.884ZM304.962 139.242L305.424 140.129L305.433 140.124L304.962 139.242ZM326.534 126.049L325.999 125.205L325.996 125.207L326.534 126.049ZM352.836 110.368L352.381 109.478L352.379 109.478L352.836 110.368ZM375.736 101.905L375.541 100.924L375.534 100.926L375.736 101.905ZM406.103 104.892L405.684 105.8L405.685 105.8L406.103 104.892ZM425.352 129.202L424.372 129.404L424.373 129.408L425.352 129.202ZM423.112 148.949L422.176 148.597L422.173 148.605L423.112 148.949ZM411.745 167.037L410.993 166.377L410.992 166.378L411.745 167.037ZM381.627 192.177L382.14 193.035L382.143 193.033L381.627 192.177ZM346.032 212.836L345.554 211.958L345.552 211.959L346.032 212.836ZM308.115 228.683L308.416 229.637L308.417 229.637L308.115 228.683ZM288.949 234.076L288.739 233.099L288.737 233.099L288.949 234.076ZM262.315 236.566L262.273 237.565L262.278 237.565L262.315 236.566ZM234.023 230.094L233.587 230.994L233.589 230.995L234.023 230.094ZM204.651 194.5L203.684 194.755L203.684 194.755L204.651 194.5ZM202.411 176.163L201.411 176.149L201.411 176.15L202.411 176.163ZM209.298 142.477L208.368 142.11L208.367 142.112L209.298 142.477ZM227.053 111.695L227.854 112.294L227.854 112.294L227.053 111.695ZM258.25 79.4201L257.609 78.6522L257.609 78.6523L258.25 79.4201ZM299.569 49.9656L300.081 50.8244L300.082 50.8241L299.569 49.9656ZM320.312 38.5158L319.864 37.6213L319.852 37.6276L319.839 37.6343L320.312 38.5158ZM321.058 38.2668L321.961 37.8361L321.626 37.1336L320.862 37.2863L321.058 38.2668ZM326.368 49.2189L327.212 49.7558L327.51 49.2883L327.271 48.7882L326.368 49.2189ZM324.294 50.7124L324.763 51.5959L324.794 51.5793L324.824 51.5604L324.294 50.7124ZM299.652 64.5684L299.126 63.7179L299.12 63.722L299.652 64.5684ZM251.28 103.564L250.554 102.877L250.553 102.878L251.28 103.564ZM228.464 138.993L229.396 139.354L229.397 139.352L228.464 138.993ZM223.9 163.054L222.9 163.064L222.9 163.068L223.9 163.054ZM226.721 180.063L227.663 179.725L227.661 179.721L226.721 180.063ZM243.481 200.391L242.968 201.249L242.97 201.25L243.481 200.391ZM264.722 206.945L264.812 205.949L264.809 205.949L264.722 206.945ZM299.154 202.299L299.451 203.254L299.452 203.254L299.154 202.299ZM346.198 181.473L346.689 182.345L346.692 182.343L346.198 181.473ZM371.587 165.875L371.022 165.05L371.017 165.053L371.587 165.875ZM393.242 143.556L392.321 143.168L392.317 143.176L393.242 143.556ZM394.321 133.849L393.347 134.077L393.349 134.084L393.351 134.091L394.321 133.849ZM384.282 124.224L384.025 125.191L384.036 125.193L384.047 125.196L384.282 124.224ZM372.085 124.805L371.792 123.849L371.785 123.851L372.085 124.805ZM359.391 130.447L359.858 131.331L359.859 131.33L359.391 130.447ZM338.399 142.975L337.861 142.132L337.857 142.135L338.399 142.975ZM310.438 159.818L309.973 158.933L309.972 158.934L310.438 159.818ZM291.355 167.7L291.612 168.667L291.617 168.665L291.355 167.7ZM275.176 169.111L275.05 170.103L275.057 170.104L275.176 169.111ZM255.263 150.608L254.277 150.776L254.278 150.78L255.263 150.608ZM256.176 137.582L257.141 137.842L257.142 137.84L256.176 137.582ZM267.045 117.918L267.804 118.569L267.805 118.568L267.045 117.918ZM288.949 98.5862L289.508 99.4156L289.508 99.4155L288.949 98.5862ZM338.15 70.1274L338.569 71.0354L338.573 71.0334L338.15 70.1274ZM377.312 55.8565L377.075 54.8852L377.074 54.8854L377.312 55.8565ZM401.042 51.9569L400.961 50.9602L400.959 50.9603L401.042 51.9569ZM419.378 51.708L419.434 50.7096L419.432 50.7095L419.378 51.708ZM476.793 70.6252L477.372 69.8098L477.37 69.808L476.793 70.6252ZM510.562 115.512L511.51 115.193L511.51 115.192L510.562 115.512ZM514.545 145.132L515.545 145.157L515.545 145.157L514.545 145.132ZM509.152 174.338L508.201 174.029L508.199 174.034L509.152 174.338ZM484.178 220.22L483.387 219.608L483.384 219.613L484.178 220.22ZM455.968 250.173L456.643 250.91L456.644 250.909L455.968 250.173ZM434.728 268.509L434.115 267.719L434.115 267.719L434.728 268.509ZM396.229 293.981L396.728 294.848L396.73 294.847L396.229 293.981ZM356.487 312.732L356.819 313.675L356.837 313.669L356.855 313.662L356.487 312.732ZM349.156 315.795C347.456 309.366 345.776 302.958 344.096 296.548C342.416 290.139 340.735 283.729 339.034 277.297L337.101 277.809C338.801 284.238 340.481 290.646 342.161 297.056C343.841 303.465 345.522 309.875 347.223 316.307L349.156 315.795ZM338.486 278.461C339.562 277.964 340.655 277.46 341.667 276.954L340.773 275.165C339.794 275.655 338.73 276.146 337.648 276.645L338.486 278.461ZM341.672 276.952C348.043 273.724 354.611 271.019 361.137 268.007L360.299 266.191C353.882 269.153 347.174 271.923 340.768 275.167L341.672 276.952ZM361.139 268.006C377.303 260.507 392.38 251.344 406.619 240.685L405.421 239.084C391.284 249.665 376.326 258.756 360.297 266.192L361.139 268.006ZM406.618 240.686C419.095 231.369 431.007 221.292 441.761 209.871L440.305 208.5C429.653 219.813 417.836 229.814 405.422 239.083L406.618 240.686ZM441.761 209.872C450.089 201.044 457.78 191.603 463.807 180.971L462.068 179.985C456.147 190.427 448.572 199.737 440.306 208.499L441.761 209.872ZM463.809 180.968C469.495 170.85 473.691 160.203 475.622 148.7L473.65 148.369C471.765 159.599 467.664 170.027 462.066 179.988L463.809 180.968ZM475.622 148.703C477.977 134.909 476.465 121.581 470.138 108.925L468.349 109.82C474.466 122.055 475.942 134.945 473.65 148.366L475.622 148.703ZM470.138 108.925C463.486 95.6222 453.458 85.596 440.247 78.7803L439.33 80.5577C452.172 87.1831 461.891 96.9039 468.349 109.82L470.138 108.925ZM440.249 78.7814C431.337 74.1573 422.01 71.4703 412.112 70.2959L411.876 72.282C421.559 73.4308 430.65 76.054 439.328 80.5566L440.249 78.7814ZM412.109 70.2957C404.904 69.4579 397.696 69.3738 390.402 70.1284L390.607 72.1177C397.75 71.3788 404.812 71.4607 411.878 72.2823L412.109 70.2957ZM390.404 70.1281C378.764 71.3004 367.557 74.3138 356.702 78.5721L357.433 80.434C368.15 76.2293 379.179 73.2688 390.605 72.118L390.404 70.1281ZM356.708 78.5697C339.374 85.2368 323.053 93.9823 307.414 103.881L308.484 105.571C324.042 95.7227 340.245 87.0445 357.426 80.4364L356.708 78.5697ZM307.406 103.886C302.046 107.349 296.506 110.708 291.393 114.815L292.645 116.375C297.654 112.351 303.066 109.072 308.492 105.566L307.406 103.886ZM291.392 114.816C287.532 117.92 283.91 121.372 280.785 125.257L282.344 126.51C285.359 122.761 288.872 119.41 292.646 116.374L291.392 114.816ZM280.779 125.264C278.532 128.116 276.964 131.332 276.268 134.989L278.232 135.363C278.863 132.051 280.282 129.127 282.35 126.502L280.779 125.264ZM276.267 134.996C275.767 137.72 276.282 140.554 277.89 142.791C279.511 145.047 282.181 146.608 285.805 146.876L285.953 144.882C282.857 144.653 280.755 143.351 279.514 141.624C278.26 139.879 277.82 137.611 278.234 135.356L276.267 134.996ZM285.808 146.877C288.295 147.054 290.755 146.609 293.01 145.829L292.355 143.939C290.296 144.652 288.11 145.036 285.95 144.882L285.808 146.877ZM292.993 145.834C297.404 144.392 301.469 142.189 305.424 140.128L304.5 138.355C300.491 140.443 296.59 142.554 292.372 143.933L292.993 145.834ZM305.433 140.124C312.945 136.117 319.96 131.441 327.073 126.892L325.996 125.207C318.838 129.785 311.914 134.401 304.492 138.359L305.433 140.124ZM327.07 126.894C335.712 121.41 344.298 115.879 353.293 111.257L352.379 109.478C343.286 114.15 334.615 119.737 325.999 125.205L327.07 126.894ZM353.291 111.258C360.544 107.55 368.007 104.52 375.938 102.884L375.534 100.926C367.369 102.609 359.731 105.719 352.381 109.478L353.291 111.258ZM375.93 102.886C386.221 100.844 396.205 101.425 405.684 105.8L406.522 103.984C396.586 99.398 386.159 98.8175 375.541 100.924L375.93 102.886ZM405.685 105.8C415.847 110.478 422.113 118.428 424.372 129.404L426.331 129.001C423.945 117.408 417.267 108.93 406.521 103.984L405.685 105.8ZM424.373 129.408C425.731 135.875 424.544 142.308 422.176 148.597L424.048 149.302C426.492 142.812 427.794 135.971 426.331 128.997L424.373 129.408ZM422.173 148.605C419.742 155.249 415.679 161.033 410.993 166.377L412.497 167.696C417.269 162.254 421.503 156.257 424.051 149.293L422.173 148.605ZM410.992 166.378C402.351 176.254 392.309 184.568 381.11 191.32L382.143 193.033C393.512 186.178 403.715 177.732 412.497 167.695L410.992 166.378ZM381.113 191.319C369.328 198.373 357.564 205.415 345.554 211.958L346.511 213.714C358.562 207.148 370.361 200.085 382.14 193.035L381.113 191.319ZM345.552 211.959C333.509 218.558 320.877 223.596 307.813 227.73L308.417 229.637C321.572 225.474 334.329 220.389 346.513 213.713L345.552 211.959ZM307.814 227.73C301.501 229.723 295.24 231.7 288.739 233.099L289.159 235.054C295.767 233.632 302.117 231.626 308.416 229.637L307.814 227.73ZM288.737 233.099C280.014 234.992 271.22 235.895 262.353 235.566L262.278 237.565C271.332 237.9 280.294 236.978 289.161 235.054L288.737 233.099ZM262.358 235.566C252.657 235.155 243.259 233.431 234.456 229.193L233.589 230.995C242.708 235.386 252.393 237.146 262.273 237.565L262.358 235.566ZM234.458 229.194C219.453 221.936 209.858 210.306 205.618 194.245L203.684 194.755C208.074 211.383 218.059 223.483 233.587 230.994L234.458 229.194ZM205.618 194.245C204.065 188.359 203.329 182.31 203.411 176.177L201.411 176.15C201.327 182.462 202.084 188.692 203.684 194.755L205.618 194.245ZM203.411 176.178C203.575 164.697 206.035 153.532 210.228 142.843L208.367 142.112C204.097 152.995 201.579 164.398 201.411 176.149L203.411 176.178ZM210.227 142.845C214.583 131.834 220.754 121.789 227.854 112.294L226.252 111.097C219.082 120.685 212.807 130.885 208.368 142.11L210.227 142.845ZM227.854 112.294C236.84 100.258 247.401 89.7764 258.891 80.1878L257.609 78.6523C246.033 88.3129 235.354 98.9056 226.252 111.097L227.854 112.294ZM258.891 80.1879C271.881 69.3489 285.528 59.5067 300.081 50.8244L299.057 49.1069C284.404 57.8483 270.672 67.7531 257.609 78.6522L258.891 80.1879ZM300.082 50.8241C306.86 46.7738 313.802 43.1374 320.784 39.3972L319.839 37.6343C312.882 41.3615 305.885 45.0264 299.056 49.1072L300.082 50.8241ZM320.759 39.4102C320.84 39.3697 320.878 39.3512 320.933 39.3311C320.99 39.3104 321.085 39.2813 321.255 39.2474L320.862 37.2863C320.338 37.3912 320.086 37.5103 319.864 37.6213L320.759 39.4102ZM320.156 38.6976C321.029 40.5278 321.923 42.3573 322.815 44.1819C323.707 46.008 324.597 47.8292 325.466 49.6497L327.271 48.7882C326.397 46.958 325.503 45.1285 324.612 43.3039C323.72 41.4778 322.83 39.6566 321.961 37.8361L320.156 38.6976ZM325.525 48.682C325.347 48.9618 325.136 49.1303 324.866 49.2841C324.719 49.3681 324.569 49.4401 324.377 49.5341C324.198 49.6219 323.979 49.7301 323.764 49.8644L324.824 51.5604C324.941 51.4872 325.075 51.4191 325.256 51.3306C325.424 51.2483 325.643 51.144 325.859 51.0206C326.315 50.7595 326.809 50.3887 327.212 49.7558L325.525 48.682ZM323.826 49.8288C315.527 54.2272 307.205 58.7209 299.126 63.718L300.178 65.4189C308.196 60.4595 316.467 55.9924 324.763 51.5959L323.826 49.8288ZM299.12 63.722C281.392 74.8745 264.977 87.6202 250.554 102.877L252.007 104.251C266.291 89.1415 282.567 76.4983 300.185 65.4148L299.12 63.722ZM250.553 102.878C240.688 113.328 232.729 125.135 227.53 138.633L229.397 139.352C234.487 126.134 242.292 114.543 252.008 104.251L250.553 102.878ZM227.531 138.632C224.504 146.451 222.816 154.625 222.9 163.064L224.9 163.044C224.819 154.889 226.449 146.967 229.396 139.354L227.531 138.632ZM222.9 163.068C222.984 168.95 223.741 174.793 225.781 180.405L227.661 179.721C225.719 174.38 224.982 168.774 224.9 163.04L222.9 163.068ZM225.78 180.4C229.012 189.416 234.723 196.319 242.968 201.249L243.994 199.532C236.143 194.838 230.736 188.3 227.663 179.725L225.78 180.4ZM242.97 201.25C249.676 205.24 256.962 207.267 264.634 207.941L264.809 205.949C257.381 205.296 250.396 203.341 243.993 199.531L242.97 201.25ZM264.631 207.941C276.679 209.036 288.188 206.758 299.451 203.254L298.857 201.344C287.718 204.809 276.494 207.011 264.812 205.949L264.631 207.941ZM299.452 203.254C316.047 198.083 331.628 190.832 346.689 182.345L345.707 180.602C330.734 189.04 315.284 196.226 298.857 201.344L299.452 203.254ZM346.692 182.343C355.326 177.445 363.987 172.366 372.157 166.697L371.017 165.053C362.925 170.668 354.329 175.711 345.705 180.604L346.692 182.343ZM372.153 166.7C378.025 162.673 383.39 157.978 388.248 152.785L386.787 151.419C382.02 156.514 376.765 161.112 371.022 165.05L372.153 166.7ZM388.248 152.785C390.708 150.156 392.78 147.317 394.168 143.936L392.317 143.176C391.05 146.267 389.14 148.904 386.787 151.419L388.248 152.785ZM394.164 143.944C395.546 140.662 396.189 137.199 395.291 133.606L393.351 134.091C394.112 137.136 393.594 140.144 392.321 143.168L394.164 143.944ZM395.295 133.62C393.95 127.882 389.963 124.57 384.517 123.252L384.047 125.196C388.889 126.367 392.203 129.195 393.347 134.077L395.295 133.62ZM384.538 123.257C380.24 122.117 375.976 122.568 371.792 123.849L372.378 125.761C376.325 124.553 380.193 124.174 384.025 125.191L384.538 123.257ZM371.785 123.851C367.212 125.291 362.995 127.402 358.922 129.563L359.859 131.33C363.917 129.177 367.998 127.14 372.385 125.759L371.785 123.851ZM358.923 129.563C351.665 133.4 344.749 137.734 337.861 142.132L338.937 143.818C345.823 139.421 352.679 135.127 359.858 131.331L358.923 129.563ZM337.857 142.135C328.727 148.028 319.553 153.895 309.973 158.933L310.904 160.703C320.573 155.619 329.818 149.704 338.941 143.815L337.857 142.135ZM309.972 158.934C303.864 162.153 297.714 164.937 291.093 166.735L291.617 168.665C298.437 166.813 304.733 163.955 310.904 160.703L309.972 158.934ZM291.098 166.734C285.874 168.121 280.695 168.763 275.294 168.118L275.057 170.104C280.774 170.786 286.216 170.1 291.612 168.667L291.098 166.734ZM275.302 168.119C265.88 166.921 258.07 160.894 256.248 150.437L254.278 150.78C256.272 162.227 264.891 168.811 275.05 170.103L275.302 168.119ZM256.249 150.441C255.533 146.228 256.004 142.065 257.141 137.842L255.21 137.322C254.024 141.728 253.499 146.194 254.277 150.776L256.249 150.441ZM257.142 137.84C259.084 130.556 262.894 124.298 267.804 118.569L266.286 117.267C261.239 123.155 257.25 129.674 255.209 137.325L257.142 137.84ZM267.805 118.568C274.128 111.177 281.443 104.847 289.508 99.4156L288.39 97.7567C280.193 103.278 272.739 109.725 266.285 117.268L267.805 118.568ZM289.508 99.4155C305.249 88.8106 321.379 78.9693 338.569 71.0354L337.731 69.2194C320.406 77.2158 304.177 87.1214 288.39 97.7568L289.508 99.4155ZM338.573 71.0334C351.147 65.1605 364.109 60.1262 377.551 56.8277L377.074 54.8854C363.467 58.2244 350.377 63.3125 337.727 69.2214L338.573 71.0334ZM377.55 56.8279C385.302 54.9312 393.132 53.6127 401.124 52.9535L400.959 50.9603C392.855 51.6287 384.921 52.9653 377.075 54.8852L377.55 56.8279ZM401.122 52.9537C407.218 52.4595 413.229 52.3771 419.324 52.7066L419.432 50.7095C413.247 50.3752 407.145 50.4588 400.961 50.9602L401.122 52.9537ZM419.322 52.7065C439.998 53.8597 459.223 59.4563 476.217 71.4424L477.37 69.808C460.014 57.5668 440.409 51.8795 419.434 50.7096L419.322 52.7065ZM476.215 71.4407C492.065 82.6923 503.38 97.3746 509.615 115.832L511.51 115.192C505.133 96.313 493.548 81.292 477.372 69.8098L476.215 71.4407ZM509.614 115.831C512.803 125.316 513.792 135.067 513.545 145.108L515.545 145.157C515.795 134.954 514.793 124.958 511.51 115.193L509.614 115.831ZM513.545 145.108C513.299 155.025 511.25 164.635 508.201 174.029L510.103 174.647C513.194 165.124 515.293 155.319 515.545 145.157L513.545 145.108ZM508.199 174.034C502.85 190.821 494.122 205.736 483.387 219.609L484.969 220.832C495.806 206.827 504.667 191.706 510.105 174.642L508.199 174.034ZM483.384 219.613C475.055 230.498 465.396 240.16 455.292 249.436L456.644 250.909C466.785 241.6 476.541 231.847 484.972 220.828L483.384 219.613ZM455.293 249.435C448.405 255.742 441.463 262.022 434.115 267.719L435.34 269.299C442.761 263.546 449.758 257.215 456.643 250.91L455.293 249.435ZM434.115 267.719C421.964 277.142 409.062 285.414 395.729 293.115L396.73 294.847C410.113 287.116 423.097 278.794 435.34 269.299L434.115 267.719ZM395.731 293.114C383.092 300.383 369.698 306.42 356.118 311.803L356.855 313.662C370.489 308.258 383.978 302.181 396.728 294.848L395.731 293.114ZM356.154 311.789C353.31 312.793 350.667 313.983 347.818 315.123L348.561 316.98C351.52 315.796 354.021 314.663 356.819 313.675L356.154 311.789Z" fill="#DBDBDB" mask="url(#path-1-inside-1_397_403)"/>
</svg>
