<svg width="740" height="370" viewBox="0 0 740 370" fill="none" xmlns="http://www.w3.org/2000/svg">
<path d="M402.179 54.2184L401.523 54.0035V54.6935V295.262V295.962L402.185 295.735C453.581 278.134 489.269 230.475 489.135 174.946C488.994 118.508 452.581 70.7336 402.179 54.2184ZM389.227 51.0704V50.6599L388.824 50.58C380.749 48.9762 371.059 47.7638 361.95 47.7638C294.118 47.7638 239.334 102.08 234.917 168.288L234.881 168.821L235.415 168.821L262.27 168.861H262.271C326.727 168.861 389.227 115.736 389.227 51.0704ZM262.294 181.257H261.794V181.262H235.393H234.873L234.894 181.782C237.459 247.722 294.108 302.202 361.949 302.292H361.95C370.583 302.292 380.749 301.074 388.816 299.425L389.216 299.343V298.935C389.216 234.325 326.732 181.257 262.294 181.257ZM503.5 33.5V316.5H220.5V33.5H503.5Z" stroke="#DBDBDB"/>
</svg>
