<svg width="740" height="370" viewBox="0 0 740 370" fill="none" xmlns="http://www.w3.org/2000/svg">
<mask id="path-1-inside-1_30_681" fill="white">
<path fill-rule="evenodd" clip-rule="evenodd" d="M141.912 134.115V90.3305C273.152 83.6247 337.981 44.1791 370.395 20.1173C405.182 44.5736 467.244 83.6247 598.483 90.3305V134.115C580.694 140.426 567.65 156.205 567.254 175.928H551.442C551.838 153.443 564.487 134.904 582.671 124.254V104.531C476.335 97.4307 407.158 64.2964 370.395 39.0512C338.376 62.7185 273.547 94.2751 158.12 104.531V124.254C176.303 134.904 188.558 153.443 189.348 175.928H173.536C172.746 156.205 159.701 140.821 141.912 134.115ZM536.816 158.571C536.816 161.333 536.816 176.322 536.816 176.322H519.818V162.516C519.818 158.177 514.68 156.205 512.308 156.205H495.705V176.716H478.707V100.981L519.818 109.659C525.748 110.842 536.816 114.787 536.816 126.226V138.06C536.816 142.399 536.421 146.343 530.887 149.104C533.654 150.682 536.816 155.416 536.816 158.571ZM464.081 113.603V159.36C464.081 164.883 460.919 175.928 445.897 175.928H423.365C415.855 175.928 406.368 171.983 406.368 158.571V91.5139C406.368 83.6247 414.669 78.4968 423.761 81.6525L453.803 93.0917C460.919 96.2473 464.081 102.559 464.081 113.603ZM339.167 92.6972V73.7633L370.395 56.8017L403.205 74.5522V93.4861L380.673 81.258V175.928H362.094V80.4691L339.167 92.6972ZM336.795 91.9083V158.966C336.795 172.377 327.308 176.322 319.797 176.322H297.265C282.244 176.322 279.081 165.277 279.081 159.755V113.603C279.081 102.559 282.244 96.2473 289.359 93.4861L319.402 82.0469C328.889 78.4968 336.795 83.6247 336.795 91.9083ZM238.365 176.322L224.135 146.343V176.322H207.137V113.209L224.135 110.053L237.575 138.849L252.596 104.136L268.803 99.7974V176.322H251.806V145.16L238.365 176.322ZM723.793 353.827H16.6026V194.861H724.188V353.827H723.793ZM300.427 108.081L314.263 102.559C316.635 101.375 319.797 102.559 319.797 106.503V153.049C319.797 156.205 318.216 158.571 314.658 158.571H302.009C298.056 158.571 296.474 156.599 296.474 153.444V116.365C296.474 112.42 296.87 109.659 300.427 108.081ZM446.688 116.365V153.444C446.688 156.599 445.107 158.571 441.154 158.571H428.504C424.551 158.571 423.365 156.205 423.365 153.049V106.503C423.365 102.559 426.132 101.375 428.9 102.559L442.735 108.081C446.293 109.659 446.688 112.42 446.688 116.365ZM516.261 125.437C519.818 126.226 519.818 129.776 519.818 132.537C519.818 135.693 519.423 138.454 515.865 138.454H495.705V121.098L516.261 125.437ZM32.8098 209.456V337.26H707.586V209.456H32.8098ZM95.6624 322.271H80.641V279.67H68.7821V322.271H53.7607V222.868H68.7821V262.708H80.641V222.868H95.6624V322.271ZM130.449 322.271L127.682 296.237H116.613L113.451 322.271H100.011L111.474 222.868H133.611L145.075 322.271H130.449ZM192.511 254.03C192.511 261.525 191.325 267.441 185.791 271.386C186.581 272.175 192.115 276.119 192.511 282.825V322.271H177.885V289.136C177.885 283.22 175.513 281.247 166.026 281.247V322.665H151.004V222.868H175.513C187.372 222.868 192.906 227.207 192.906 239.829V254.03H192.511ZM231.25 322.271H201.207V222.868H216.229V306.887H231.25V322.271ZM267.222 322.271H236.389V222.868H267.222V238.252H251.41V262.708H266.432V278.486H251.41V306.887H267.618V322.271H267.222ZM301.613 322.271H286.592V285.192L271.175 222.868H286.592L294.498 257.58L302.799 222.868H316.635L301.218 284.403V322.271H301.613ZM339.562 278.486H312.286V265.864H339.562V278.486ZM386.207 304.52C386.207 313.987 379.882 322.665 368.419 322.665H347.073V222.868H364.861C379.487 222.868 385.812 227.996 385.812 245.352V304.52H386.207ZM420.203 322.271L417.436 296.237H406.368L403.205 322.271H389.765L401.229 222.868H423.365L434.829 322.271H420.203ZM461.314 322.271H444.712L430.876 222.868H445.897L453.013 282.825L460.128 222.868H475.15L461.314 322.271ZM494.124 322.271H479.103V222.868H494.124V322.271ZM541.955 304.52C541.955 313.987 535.63 322.665 524.167 322.665H502.821V222.868H520.609C535.235 222.868 541.56 227.996 541.56 245.352V304.52H541.955ZM590.182 256.397H575.16V242.591C575.16 237.463 571.998 236.279 569.231 236.279C566.068 236.279 563.301 237.463 563.301 242.591V253.635C563.301 260.736 589.786 273.358 589.786 283.614V307.676C589.786 320.693 578.323 324.638 568.835 324.638C559.744 324.638 548.28 320.693 548.28 307.676V285.981H563.301V303.731C563.301 308.859 566.068 310.043 568.835 310.043C571.603 310.043 574.765 308.859 574.765 303.731V293.081C574.765 279.275 548.28 275.33 548.28 259.158V237.857C548.28 224.84 559.744 220.896 568.835 220.896C577.927 220.896 589.786 224.84 589.786 237.857V256.397H590.182ZM638.408 307.676C638.408 320.693 626.549 324.638 617.457 324.638C608.365 324.638 596.506 320.693 596.506 307.676V237.463C596.506 224.446 608.365 220.501 617.457 220.501C626.549 220.501 638.408 224.446 638.408 237.463V307.676ZM689.402 322.271H671.218L659.359 265.469V322.271H644.338V222.868H664.498L674.38 273.358V222.868H689.402V322.271ZM118.59 279.67L122.147 241.013H122.938L125.705 279.67H118.59ZM165.63 236.674H171.56C175.118 236.674 177.094 239.041 177.094 242.985V257.974C177.094 261.525 175.908 265.864 170.769 265.864H165.63V236.674ZM362.489 238.646H366.047C370 238.646 371.581 239.435 371.581 246.141V299.392C371.581 305.704 369.605 306.887 366.047 306.887H362.489V238.646ZM408.344 279.67L411.902 241.013H412.692L415.459 279.67H408.344ZM517.842 238.646H521.4C525.353 238.646 526.934 239.435 526.934 246.141V299.392C526.934 305.704 524.957 306.887 521.4 306.887H517.842V238.646ZM611.528 301.365V242.985C611.528 237.857 614.69 236.674 617.457 236.674C620.62 236.674 623.387 237.857 623.387 242.985V301.365C623.387 306.493 620.224 307.676 617.457 307.676C614.295 307.676 611.528 306.493 611.528 301.365Z"/>
</mask>
<path fill-rule="evenodd" clip-rule="evenodd" d="M141.912 134.115V90.3305C273.152 83.6247 337.981 44.1791 370.395 20.1173C405.182 44.5736 467.244 83.6247 598.483 90.3305V134.115C580.694 140.426 567.65 156.205 567.254 175.928H551.442C551.838 153.443 564.487 134.904 582.671 124.254V104.531C476.335 97.4307 407.158 64.2964 370.395 39.0512C338.376 62.7185 273.547 94.2751 158.12 104.531V124.254C176.303 134.904 188.558 153.443 189.348 175.928H173.536C172.746 156.205 159.701 140.821 141.912 134.115ZM536.816 158.571C536.816 161.333 536.816 176.322 536.816 176.322H519.818V162.516C519.818 158.177 514.68 156.205 512.308 156.205H495.705V176.716H478.707V100.981L519.818 109.659C525.748 110.842 536.816 114.787 536.816 126.226V138.06C536.816 142.399 536.421 146.343 530.887 149.104C533.654 150.682 536.816 155.416 536.816 158.571ZM464.081 113.603V159.36C464.081 164.883 460.919 175.928 445.897 175.928H423.365C415.855 175.928 406.368 171.983 406.368 158.571V91.5139C406.368 83.6247 414.669 78.4968 423.761 81.6525L453.803 93.0917C460.919 96.2473 464.081 102.559 464.081 113.603ZM339.167 92.6972V73.7633L370.395 56.8017L403.205 74.5522V93.4861L380.673 81.258V175.928H362.094V80.4691L339.167 92.6972ZM336.795 91.9083V158.966C336.795 172.377 327.308 176.322 319.797 176.322H297.265C282.244 176.322 279.081 165.277 279.081 159.755V113.603C279.081 102.559 282.244 96.2473 289.359 93.4861L319.402 82.0469C328.889 78.4968 336.795 83.6247 336.795 91.9083ZM238.365 176.322L224.135 146.343V176.322H207.137V113.209L224.135 110.053L237.575 138.849L252.596 104.136L268.803 99.7974V176.322H251.806V145.16L238.365 176.322ZM723.793 353.827H16.6026V194.861H724.188V353.827H723.793ZM300.427 108.081L314.263 102.559C316.635 101.375 319.797 102.559 319.797 106.503V153.049C319.797 156.205 318.216 158.571 314.658 158.571H302.009C298.056 158.571 296.474 156.599 296.474 153.444V116.365C296.474 112.42 296.87 109.659 300.427 108.081ZM446.688 116.365V153.444C446.688 156.599 445.107 158.571 441.154 158.571H428.504C424.551 158.571 423.365 156.205 423.365 153.049V106.503C423.365 102.559 426.132 101.375 428.9 102.559L442.735 108.081C446.293 109.659 446.688 112.42 446.688 116.365ZM516.261 125.437C519.818 126.226 519.818 129.776 519.818 132.537C519.818 135.693 519.423 138.454 515.865 138.454H495.705V121.098L516.261 125.437ZM32.8098 209.456V337.26H707.586V209.456H32.8098ZM95.6624 322.271H80.641V279.67H68.7821V322.271H53.7607V222.868H68.7821V262.708H80.641V222.868H95.6624V322.271ZM130.449 322.271L127.682 296.237H116.613L113.451 322.271H100.011L111.474 222.868H133.611L145.075 322.271H130.449ZM192.511 254.03C192.511 261.525 191.325 267.441 185.791 271.386C186.581 272.175 192.115 276.119 192.511 282.825V322.271H177.885V289.136C177.885 283.22 175.513 281.247 166.026 281.247V322.665H151.004V222.868H175.513C187.372 222.868 192.906 227.207 192.906 239.829V254.03H192.511ZM231.25 322.271H201.207V222.868H216.229V306.887H231.25V322.271ZM267.222 322.271H236.389V222.868H267.222V238.252H251.41V262.708H266.432V278.486H251.41V306.887H267.618V322.271H267.222ZM301.613 322.271H286.592V285.192L271.175 222.868H286.592L294.498 257.58L302.799 222.868H316.635L301.218 284.403V322.271H301.613ZM339.562 278.486H312.286V265.864H339.562V278.486ZM386.207 304.52C386.207 313.987 379.882 322.665 368.419 322.665H347.073V222.868H364.861C379.487 222.868 385.812 227.996 385.812 245.352V304.52H386.207ZM420.203 322.271L417.436 296.237H406.368L403.205 322.271H389.765L401.229 222.868H423.365L434.829 322.271H420.203ZM461.314 322.271H444.712L430.876 222.868H445.897L453.013 282.825L460.128 222.868H475.15L461.314 322.271ZM494.124 322.271H479.103V222.868H494.124V322.271ZM541.955 304.52C541.955 313.987 535.63 322.665 524.167 322.665H502.821V222.868H520.609C535.235 222.868 541.56 227.996 541.56 245.352V304.52H541.955ZM590.182 256.397H575.16V242.591C575.16 237.463 571.998 236.279 569.231 236.279C566.068 236.279 563.301 237.463 563.301 242.591V253.635C563.301 260.736 589.786 273.358 589.786 283.614V307.676C589.786 320.693 578.323 324.638 568.835 324.638C559.744 324.638 548.28 320.693 548.28 307.676V285.981H563.301V303.731C563.301 308.859 566.068 310.043 568.835 310.043C571.603 310.043 574.765 308.859 574.765 303.731V293.081C574.765 279.275 548.28 275.33 548.28 259.158V237.857C548.28 224.84 559.744 220.896 568.835 220.896C577.927 220.896 589.786 224.84 589.786 237.857V256.397H590.182ZM638.408 307.676C638.408 320.693 626.549 324.638 617.457 324.638C608.365 324.638 596.506 320.693 596.506 307.676V237.463C596.506 224.446 608.365 220.501 617.457 220.501C626.549 220.501 638.408 224.446 638.408 237.463V307.676ZM689.402 322.271H671.218L659.359 265.469V322.271H644.338V222.868H664.498L674.38 273.358V222.868H689.402V322.271ZM118.59 279.67L122.147 241.013H122.938L125.705 279.67H118.59ZM165.63 236.674H171.56C175.118 236.674 177.094 239.041 177.094 242.985V257.974C177.094 261.525 175.908 265.864 170.769 265.864H165.63V236.674ZM362.489 238.646H366.047C370 238.646 371.581 239.435 371.581 246.141V299.392C371.581 305.704 369.605 306.887 366.047 306.887H362.489V238.646ZM408.344 279.67L411.902 241.013H412.692L415.459 279.67H408.344ZM517.842 238.646H521.4C525.353 238.646 526.934 239.435 526.934 246.141V299.392C526.934 305.704 524.957 306.887 521.4 306.887H517.842V238.646ZM611.528 301.365V242.985C611.528 237.857 614.69 236.674 617.457 236.674C620.62 236.674 623.387 237.857 623.387 242.985V301.365C623.387 306.493 620.224 307.676 617.457 307.676C614.295 307.676 611.528 306.493 611.528 301.365Z" stroke="#DBDBDB" stroke-width="2" mask="url(#path-1-inside-1_30_681)"/>
</svg>
