<svg width="42" height="42" viewBox="0 0 42 42" fill="none" xmlns="http://www.w3.org/2000/svg">
<path d="M21 30.5C15.7602 30.5 11.5 26.2398 11.5 21C11.5 15.7602 15.7602 11.5 21 11.5C26.2398 11.5 30.5 15.7602 30.5 21C30.5 26.2398 26.2398 30.5 21 30.5ZM21 16.25C18.3801 16.25 16.25 18.3801 16.25 21C16.25 23.6199 18.3801 25.75 21 25.75C23.6199 25.75 25.75 23.6199 25.75 21C25.75 18.3801 23.6199 16.25 21 16.25ZM21 40C10.5234 40 2 31.4766 2 21C2 10.5234 10.5234 2 21 2C31.4766 2 40 10.5234 40 21C40 22.2899 39.8694 23.5799 39.6126 24.8281C38.7962 28.7231 35.0081 31.2049 31.1694 30.3974C29.308 30.01 27.7063 28.9205 26.6645 27.3262C25.6224 25.735 25.2603 23.8305 25.6506 21.9675C25.9148 20.682 27.1751 19.8582 28.4605 20.1268C29.746 20.3955 30.5698 21.6542 30.2982 22.9367C30.1705 23.5587 30.2893 24.191 30.6381 24.7224C30.9869 25.2538 31.5198 25.6175 32.1388 25.7481C33.4169 26.0005 34.68 25.19 34.9502 23.9075C35.1521 22.9337 35.25 21.9689 35.25 20.9981C35.25 13.1397 28.8584 6.74814 21 6.74814C13.1416 6.74814 6.75003 13.1397 6.75003 20.9981C6.75003 28.8565 13.1416 35.2481 21 35.2481C22.6818 35.2481 24.3324 34.9587 25.9013 34.3842C27.1333 33.9374 28.4945 34.5653 28.9457 35.8018C29.394 37.0339 28.7631 38.398 27.5281 38.8463C25.4381 39.6107 23.2383 39.9981 20.9997 39.9981L21 40Z" fill="#4A86E8"/>
</svg>
