<svg width="110" height="80" viewBox="0 0 110 80" fill="none" xmlns="http://www.w3.org/2000/svg">

  <path fill-rule="evenodd" clip-rule="evenodd"
    d="M83.8088 15.0959H84.0957C87.1143 14.877 89.8736 15.8336 91.813 17.992C93.2337 19.5903 94.0398 21.5297 94.0535 23.7014L94.0397 31.8424L93.958 58.2739C93.7116 61.1975 91.813 64.0247 89.0955 65.3091C87.9479 65.9237 86.6365 66.1831 85.2433 66.1831H74.7521L24.7855 66.0876C21.603 66.0463 18.5431 64.2845 17.0136 61.416C16.3989 60.2271 15.989 58.9023 16.0028 57.4954L16.0849 23.073C16.2346 19.7946 18.7207 16.5162 21.8215 15.4645C22.5862 15.2185 23.3377 15.0138 24.1984 15L83.8088 15.0959ZM47.5834 32.0337C50.4519 33.0445 53.0748 35.6536 53.4705 38.7682C53.6619 40.2706 53.5797 41.9373 53.0335 43.2625C51.7766 46.1856 48.7309 48.7122 45.5485 48.972C43.868 49.1221 42.2425 48.6851 40.8902 47.8244C38.5 46.1857 36.6423 43.7542 36.5739 40.8173C36.5055 38.9049 36.9292 36.9242 36.287 35.2441C35.7541 34.1787 34.8939 32.6763 33.514 32.635C32.8994 32.7034 32.0116 32.4303 31.8202 33.1542L31.7926 33.7413V46.8136C31.9703 47.4012 32.394 48.0434 33.0357 48.1797C33.4998 48.1251 33.8964 48.2481 34.2375 48.4115C34.3059 48.4661 34.2512 48.5621 34.2099 48.6167L33.9643 48.7122H26.7387L24.2939 48.63C24.275 48.6187 24.2594 48.6027 24.2486 48.5835C24.2378 48.5644 24.2321 48.5428 24.2321 48.5208C24.2321 48.4988 24.2378 48.4772 24.2486 48.458C24.2594 48.4389 24.275 48.4229 24.2939 48.4115C24.8401 48.0429 25.7008 48.2889 26.2062 47.756C27.3671 46.9224 26.7525 45.3108 26.9439 44.0815C26.8892 40.4891 27.0669 36.8554 27.026 33.1266C26.9168 32.9219 26.78 32.7167 26.5482 32.635C25.3731 32.512 24.1438 32.7305 23.4607 33.6867C22.3545 35.0256 22.0405 36.7328 21.8899 38.4266C21.8491 38.5359 21.6985 38.6589 21.5759 38.618L21.5075 38.4813C21.4667 36.7053 21.5484 34.5882 21.5622 32.758C21.7944 32.512 21.4667 31.9933 21.9175 31.952L37.2161 32.0204C37.3391 32.0883 37.4075 32.1976 37.4075 32.3619L37.4213 35.5581C37.4759 35.6949 37.5305 35.8859 37.6806 35.9405C38.2544 35.8997 38.2407 35.2437 38.6506 34.9706C40.8218 32.3619 44.3596 31.0504 47.5834 32.0337ZM84.4781 34.0282C86.7315 35.8997 87.7015 38.8636 87.2094 41.8556C86.7453 45.1749 83.6721 48.1526 80.5571 49.1221C77.2107 50.1191 74.1642 48.2889 71.9654 45.8304C69.8479 43.3442 69.5201 39.465 71.0909 36.6649C72.648 33.632 75.9943 31.5834 79.5188 31.8427C81.3365 32.1705 83.0437 32.7989 84.4781 34.0282ZM62.8824 32.1158C65.1904 32.1158 67.6765 32.8264 68.6465 35.094C68.7933 35.5822 68.8216 36.0983 68.729 36.5996C68.6364 37.1009 68.4255 37.5728 68.114 37.9763C67.0348 39.0688 65.6687 39.6834 64.2618 40.0938C64.1934 40.1484 64.2071 40.2439 64.2893 40.3123C65.9694 40.8039 68.3591 41.4594 68.6322 43.5632C68.8787 44.9292 68.4821 46.4863 68.8241 47.8937C69.0288 48.3169 69.5751 48.249 69.9988 48.2352C70.1906 48.1943 70.4091 48.0713 70.6001 48.1943C70.6818 48.3853 70.5046 48.5629 70.3816 48.6722C68.8792 49.5875 66.8305 49.56 65.2597 48.8223C64.2484 48.3307 63.6609 47.3607 63.6063 46.2682C63.4286 44.7654 63.962 43.2221 63.5792 41.733C63.3736 41.1459 62.7318 40.7226 62.1447 40.5859C61.5167 40.5175 60.9425 40.4628 60.3554 40.6538C60.2053 40.8177 60.1369 41.05 60.096 41.2955L60.1098 47.1147C60.2461 47.5659 60.5468 48.0025 60.9705 48.249C61.3799 48.4808 61.995 48.2898 62.309 48.6722C62.3366 48.8361 62.1589 48.9316 62.0221 48.9729L53.704 48.9591C53.5263 48.9049 53.3078 48.9182 53.2257 48.7544C53.2257 48.6176 53.3212 48.5359 53.3625 48.4399C53.8132 48.2898 54.3324 48.2352 54.701 47.8941C55.6714 47.0472 55.3156 45.6403 55.4524 44.4927L55.5199 38.1273C55.4653 36.898 55.4791 35.5048 55.3698 34.2755L55.1651 33.3056C54.6872 32.8002 54.0859 32.6363 53.4579 32.4862C53.3625 32.4316 53.3349 32.2677 53.3895 32.1718C53.8949 31.9533 54.5509 32.1172 55.0971 32.035L62.8824 32.1158ZM47.8019 33.7549C48.5257 35.121 48.3619 36.8281 48.5257 38.4811C48.4844 39.888 48.5258 41.1995 48.4298 42.5651C48.1567 44.7643 48.1429 47.5511 45.7252 48.466C44.8237 48.7666 43.8129 48.5206 43.0752 48.0294C42.2145 47.155 41.9143 46.0349 41.8597 44.8603C41.4773 42.2787 41.7775 39.9973 41.7504 37.4157C42.0919 35.6126 41.9689 33.468 43.895 32.5118C44.8241 32.0202 46.0672 32.3204 46.9278 32.8263C47.3102 33.0172 47.5834 33.4134 47.8019 33.7549ZM81.6505 34.0826C82.2109 35.3528 82.1017 36.7597 82.2518 38.2213C82.1972 40.4614 82.3473 42.4696 81.9507 44.6276C81.8006 46.1713 81.2272 48.0014 79.5738 48.589C78.6727 48.835 77.5527 48.6712 76.7879 48.0974C76.1044 47.4414 75.8997 46.5812 75.6812 45.7343C75.2855 43.0434 75.5045 40.2842 75.5045 37.6071C75.7638 36.0358 75.75 34.247 77.0206 33.0994C77.7987 32.2387 79.1919 32.3209 80.1485 32.717C80.776 32.9217 81.4049 33.4547 81.6505 34.0826ZM63.7294 33.6594C64.0163 34.274 64.0163 35.0117 64.1664 35.6539L64.0709 37.8807C63.9616 38.6316 63.4283 39.3698 62.6502 39.5878C61.9258 39.6424 61.0247 39.9022 60.355 39.5061C60.1911 38.8231 60.1503 38.0854 60.1641 37.3206C60.1911 35.9275 60.1911 34.7253 60.2458 33.3459C60.2595 33.1136 60.3421 32.9222 60.5327 32.7996C61.6802 32.8533 63.0872 32.5256 63.7294 33.6594ZM89.8051 47.8787C90.2839 48.6297 90.2839 49.7911 89.8735 50.5834C89.2864 51.663 88.1117 52.0995 86.9366 51.977C86.0493 51.8402 85.2841 51.1434 84.9701 50.324C84.7783 49.7777 84.6561 49.0672 84.9284 48.5618C85.0794 47.6327 85.9942 46.8817 86.8816 46.7036C88.0162 46.4447 89.2318 46.8817 89.8051 47.8787ZM89.1767 47.8241C89.6279 48.3841 89.8047 49.0671 89.6826 49.8457C89.5049 50.6108 89.0408 51.1571 88.2894 51.4849C87.3603 51.7442 86.2944 51.4849 85.6802 50.6792C85.1744 49.9416 85.0931 48.7665 85.6256 48.0017C86.1581 47.2645 87.0188 46.9092 87.9199 47.0731C88.412 47.1548 88.8223 47.483 89.1767 47.8241ZM88.6443 48.316C88.6581 48.63 88.726 49.0265 88.4396 49.245C88.3024 49.3952 88.071 49.3952 87.948 49.5319C88.1389 49.9832 88.5075 50.3651 88.6852 50.8296C88.5592 50.8572 88.4288 50.8572 88.3028 50.8296L87.483 49.5866C87.3329 49.5044 87.1144 49.4635 86.9367 49.5457C86.8275 49.9276 86.8959 50.3922 86.8412 50.8159C86.7737 50.898 86.6365 50.8292 86.541 50.8567C86.4864 49.8868 86.541 48.808 86.5273 47.8243C87.0877 47.7289 87.5794 47.8243 88.1389 47.8243C88.385 47.9065 88.5488 48.0704 88.6443 48.316ZM88.2481 48.5349C88.3027 48.7667 88.1935 48.9719 88.0025 49.0949C87.633 49.0541 87.2782 49.2455 86.9367 49.0674C86.882 48.7534 86.8958 48.5211 86.9238 48.1934C87.3737 48.1521 88.0434 48.0295 88.2481 48.5349Z"
    fill="black" />
</svg>