<svg width="130" height="27" viewBox="0 0 130 27" fill="none" xmlns="http://www.w3.org/2000/svg">
<path d="M126.643 1.96655C127.149 1.96655 127.633 2.09352 128.098 2.34747C128.562 2.59885 128.926 2.96052 129.19 3.4325C129.457 3.90447 129.591 4.39825 129.591 4.91384C129.591 5.42685 129.46 5.91678 129.198 6.38363C128.939 6.84791 128.576 7.21087 128.109 7.47251C127.645 7.73158 127.156 7.86112 126.643 7.86112C126.13 7.86112 125.64 7.73158 125.174 7.47251C124.709 7.21087 124.346 6.84791 124.085 6.38363C123.826 5.91678 123.696 5.42685 123.696 4.91384C123.696 4.39825 123.828 3.90447 124.092 3.4325C124.359 2.96052 124.725 2.59885 125.189 2.34747C125.653 2.09352 126.138 1.96655 126.643 1.96655ZM126.647 2.5437C126.242 2.5437 125.853 2.64502 125.481 2.84766C125.109 3.0503 124.816 3.34144 124.6 3.72107C124.387 4.1007 124.281 4.49829 124.281 4.91384C124.281 5.32682 124.385 5.72056 124.593 6.09506C124.803 6.46956 125.095 6.76198 125.47 6.97232C125.844 7.18265 126.237 7.28782 126.647 7.28782C127.06 7.28782 127.453 7.18265 127.825 6.97232C128.199 6.76198 128.491 6.46956 128.702 6.09506C128.912 5.72056 129.017 5.32682 129.017 4.91384C129.017 4.49829 128.91 4.1007 128.694 3.72107C128.481 3.34144 128.188 3.0503 127.813 2.84766C127.441 2.64502 127.052 2.5437 126.647 2.5437ZM125.312 6.49136V3.36324H125.947C126.542 3.36324 126.875 3.36581 126.947 3.37094C127.158 3.38889 127.321 3.43122 127.436 3.49791C127.554 3.56204 127.651 3.66207 127.728 3.79802C127.808 3.93141 127.848 4.08018 127.848 4.24435C127.848 4.47008 127.773 4.66374 127.624 4.82534C127.478 4.98438 127.272 5.08313 127.005 5.12161C127.1 5.15752 127.173 5.19728 127.224 5.24088C127.276 5.28193 127.346 5.36144 127.436 5.47944C127.459 5.51022 127.536 5.63719 127.667 5.86035L128.036 6.49136H127.251L126.99 5.98348C126.813 5.64232 126.666 5.42814 126.551 5.34092C126.436 5.25114 126.289 5.20626 126.112 5.20626H125.947V6.49136H125.312ZM125.947 4.71376H126.205C126.572 4.71376 126.799 4.69965 126.886 4.67144C126.976 4.64322 127.046 4.59448 127.097 4.52523C127.149 4.4534 127.174 4.3726 127.174 4.28283C127.174 4.19561 127.149 4.11866 127.097 4.05197C127.049 3.98271 126.978 3.93397 126.886 3.90576C126.793 3.87498 126.566 3.85959 126.205 3.85959H125.947V4.71376Z" fill="black"/>
<path d="M8.75343 19.4521C6.30571 19.4521 4.23083 18.6254 2.52877 16.9719C0.842923 15.3185 0 13.2274 0 10.6986C0 8.16987 0.842923 6.08688 2.52877 4.44966C4.23083 2.79624 6.30571 1.96952 8.75343 1.96952C11.2174 1.96952 13.2841 2.79624 14.9538 4.44966C16.6396 6.08688 17.4825 8.16987 17.4825 10.6986C17.4825 12.1251 17.1908 13.4381 16.6072 14.6377C16.0399 15.821 15.2537 16.8098 14.2486 17.6041L17.7257 22.0781H12.6925L10.6257 19.2576C9.97729 19.3872 9.3532 19.4521 8.75343 19.4521ZM5.44658 7.12432C4.63608 8.01587 4.23083 9.20731 4.23083 10.6986C4.23083 12.19 4.63608 13.3814 5.44658 14.273C6.27329 15.1645 7.36747 15.6103 8.72912 15.6103C10.107 15.6103 11.2012 15.1645 12.0117 14.273C12.8384 13.3814 13.2517 12.19 13.2517 10.6986C13.2517 9.20731 12.8384 8.01587 12.0117 7.12432C11.2012 6.23277 10.107 5.78699 8.72912 5.78699C7.36747 5.78699 6.27329 6.23277 5.44658 7.12432Z" fill="black"/>
<path d="M29.5172 5.71405H33.6751V19.2819H29.5172V17.288C28.6581 18.7145 27.2883 19.4278 25.4079 19.4278C23.8518 19.4278 22.5874 18.909 21.6148 17.8716C20.6584 16.8341 20.1802 15.4239 20.1802 13.6408V5.71405H24.3138V13.0815C24.3138 13.9569 24.5407 14.6377 24.9946 15.124C25.4647 15.5941 26.105 15.8291 26.9155 15.8291C27.726 15.8291 28.3582 15.5941 28.812 15.124C29.2821 14.6377 29.5172 13.9569 29.5172 13.0815V5.71405Z" fill="black"/>
<path d="M41.1202 4.18219C40.6501 4.65229 40.0747 4.88733 39.3939 4.88733C38.713 4.88733 38.1376 4.65229 37.6675 4.18219C37.1974 3.7121 36.9623 3.13665 36.9623 2.45582C36.9623 1.75879 37.1974 1.17523 37.6675 0.705137C38.1376 0.235046 38.713 0 39.3939 0C40.0747 0 40.6501 0.235046 41.1202 0.705137C41.5903 1.17523 41.8254 1.75879 41.8254 2.45582C41.8254 3.13665 41.5903 3.7121 41.1202 4.18219ZM37.3271 19.2819V5.71405H41.485V19.2819H37.3271Z" fill="black"/>
<path d="M46.0146 17.5555C44.7664 16.2911 44.1423 14.6053 44.1423 12.498C44.1423 10.3906 44.7664 8.71291 46.0146 7.46473C47.279 6.20035 48.9081 5.56816 50.9019 5.56816C52.5553 5.56816 53.9575 5.98151 55.1084 6.80822C56.2593 7.61873 57.0212 8.78585 57.3941 10.3096H52.8958C52.5067 9.49909 51.8664 9.09384 50.9749 9.09384C50.0995 9.09384 49.443 9.40994 49.0053 10.0421C48.5839 10.6581 48.3732 11.4767 48.3732 12.498C48.3732 13.5192 48.5839 14.3459 49.0053 14.9781C49.443 15.5941 50.0752 15.9021 50.9019 15.9021C51.4206 15.9021 51.8259 15.8129 52.1177 15.6346C52.4095 15.4563 52.6688 15.1402 52.8958 14.6863H57.3941C57.0212 16.1452 56.2512 17.3042 55.0841 18.1634C53.917 19.0225 52.5229 19.4521 50.9019 19.4521C48.9081 19.4521 47.279 18.8199 46.0146 17.5555Z" fill="black"/>
<path d="M63.8767 19.2819H59.7188V1.2887H63.8767V11.3795L68.0832 5.71405H73.6757L67.8644 12.6438L73.6757 19.2819H68.1561L63.8767 13.8596V19.2819Z" fill="black"/>
<path d="M79.9421 12.6438V19.2818H75.7842V2.21265H82.5195C84.4971 2.21265 86.037 2.72326 87.1393 3.7445C88.2416 4.76573 88.7928 5.99769 88.7928 7.44039C88.7928 8.4292 88.4929 9.3937 87.8931 10.3339C87.2933 11.2741 86.3126 11.9387 84.951 12.3277L89.1332 19.2818H84.2701L80.4284 12.6438H79.9421ZM79.9421 5.37361V9.48286H82.5195C83.1517 9.48286 83.6461 9.29644 84.0027 8.92361C84.3755 8.55078 84.5619 8.06448 84.5619 7.46471C84.5619 6.84872 84.3755 6.34621 84.0027 5.95717C83.6298 5.56813 83.1354 5.37361 82.5195 5.37361H79.9421Z" fill="#E7833F"/>
<path d="M97.7886 19.452C95.8109 19.452 94.1899 18.8199 92.9256 17.5555C91.6612 16.2749 91.029 14.5809 91.029 12.4736C91.029 10.3663 91.6531 8.68856 92.9012 7.44039C94.1656 6.19222 95.7947 5.56813 97.7886 5.56813C99.7824 5.56813 101.436 6.18411 102.749 7.41607C104.062 8.64804 104.718 10.3582 104.718 12.5466C104.718 13.0167 104.686 13.4543 104.621 13.8596H95.2841C95.3652 14.4593 95.6326 14.9538 96.0865 15.3428C96.5404 15.7156 97.0267 15.902 97.5454 15.902C98.0804 15.902 98.4775 15.8534 98.7369 15.7562C98.9962 15.6427 99.1826 15.5373 99.2961 15.4401C99.4258 15.3266 99.5879 15.1483 99.7824 14.9051H104.281C103.892 16.2668 103.114 17.3691 101.946 18.212C100.779 19.0387 99.3934 19.452 97.7886 19.452ZM100.39 11.2579C100.325 10.6257 100.05 10.1151 99.5636 9.72601C99.0773 9.32076 98.5018 9.11813 97.8372 9.11813C97.1726 9.11813 96.6133 9.32076 96.1595 9.72601C95.7056 10.1151 95.4219 10.6257 95.3084 11.2579H100.39Z" fill="#E7833F"/>
<path d="M108.191 17.5068C106.992 16.21 106.392 14.5485 106.392 12.5222C106.392 10.496 106.992 8.83445 108.191 7.53765C109.391 6.22464 110.85 5.56813 112.568 5.56813C114.303 5.56813 115.632 6.20843 116.556 7.48902V5.71402H120.714V19.2089C120.714 21.1055 120.195 22.686 119.158 23.9503C118.639 24.5987 117.926 25.1013 117.018 25.4579C116.126 25.8145 115.089 25.9928 113.905 25.9928C111.831 25.9928 110.185 25.5713 108.97 24.7284C107.754 23.8855 107.065 22.5968 106.903 20.8623H110.988C111.377 21.8836 112.349 22.3942 113.905 22.3942C114.667 22.3942 115.3 22.1348 115.802 21.6161C116.305 21.1136 116.556 20.3112 116.556 19.2089V17.3123C115.551 18.7388 114.205 19.452 112.52 19.452C110.834 19.452 109.391 18.8036 108.191 17.5068ZM115.656 14.9781C116.256 14.3945 116.556 13.5678 116.556 12.4979C116.556 11.4281 116.256 10.6095 115.656 10.0421C115.056 9.45854 114.367 9.16676 113.589 9.16676C112.811 9.16676 112.122 9.45854 111.523 10.0421C110.923 10.6257 110.623 11.4524 110.623 12.5222C110.623 13.5921 110.923 14.4188 111.523 15.0024C112.122 15.5697 112.811 15.8534 113.589 15.8534C114.367 15.8534 115.056 15.5616 115.656 14.9781Z" fill="#E7833F"/>
</svg>
