<svg width="110" height="80" viewBox="0 0 110 80" fill="none" xmlns="http://www.w3.org/2000/svg">

  <path fill-rule="evenodd" clip-rule="evenodd"
    d="M55.0434 59.2048C81.5582 59.2048 103.056 51.0886 103.056 41.0526C103.056 31.0167 81.5582 22.8696 55.0434 22.8696C28.4977 22.8696 7 31.0167 7 41.0526C7 51.0891 28.4977 59.2048 55.0434 59.2048ZM55.0434 57.346C29.5816 57.346 8.89001 50.0975 8.89001 41.0524C8.89001 32.0387 29.5816 24.6972 55.0434 24.6972C80.5674 24.6972 101.228 32.0387 101.228 41.0524C101.228 50.0975 80.5674 57.346 55.0434 57.346ZM55.0434 56.0763C79.731 56.0763 99.7715 49.3546 99.7715 41.0525C99.7715 32.7822 79.731 26.0604 55.0434 26.0604C30.325 26.0604 10.3455 32.7822 10.3455 41.0525C10.346 49.3546 30.325 56.0763 55.0434 56.0763ZM66.7531 44.057C68.8591 42.0747 70.0354 39.9994 73.0718 40.0302C74.8991 40.061 75.3632 41.5171 75.6728 42.1368L79.6688 35.3842H82.1158L75.4875 47.1243C75.3632 47.3717 75.0531 47.8364 75.0844 48.2081C75.1476 48.7965 75.8905 48.6419 75.6117 48.6419C76.9435 48.5798 79.39 46.0399 79.9789 45.4207C80.1021 45.2651 80.3198 44.9869 80.4431 44.9869C80.5673 44.9869 80.8153 45.1106 80.8153 45.2965C80.8153 45.4207 80.5365 45.8848 80.3198 46.1636C79.0804 47.7126 77.0365 50.0975 74.7132 50.1596C73.5673 50.1596 73.1329 49.695 72.9783 48.797C72.4521 49.2611 70.6551 50.0667 68.8278 50.0667C67.3096 50.0359 66.6899 49.1374 66.3808 48.4253C66.102 47.8369 65.9778 46.9697 66.1944 46.1025C65.3581 46.5364 64.5838 46.598 63.4687 46.5672C62.1671 46.5359 61.3616 45.9475 60.9596 44.4293C59.4727 47.1556 59.41 47.248 57.8929 50.098H55.26L58.6363 44.3677C59.0707 43.5929 59.2873 42.9737 59.4414 42.3237C59.5348 41.9515 59.256 41.6106 58.853 41.5803C58.4196 41.5803 57.708 42.0141 57.0257 42.6641C57.0257 42.6641 55.2913 44.5227 54.0211 46.4121C52.8125 48.2091 50.7378 50.2531 48.4766 50.2531C46.8347 50.2531 45.3478 49.3551 45.0382 47.6202C45.0382 47.6202 44.8832 48.0227 43.4271 48.8591C43.3033 48.9207 42.9937 49.1066 42.9013 49.045C42.622 48.7975 42.4675 48.4874 42.4362 48.2702C42.5291 48.3015 42.715 48.1465 43.3033 47.6818C44.4493 46.8147 44.6973 46.1323 44.6973 46.1323C44.9756 45.5439 45.4721 44.6146 45.8125 43.9641C46.7423 42.1055 48.3524 40.2161 50.9852 40.1232C51.4191 40.1232 51.5428 40.309 51.6357 40.4641C51.8832 40.65 51.7908 41.0217 51.7908 41.0217C49.9322 41.3005 48.6625 42.3843 47.8877 43.4379C47.4236 44.1192 46.9276 45.2343 46.8347 46.0394C46.6488 47.4333 47.2993 48.3621 48.2594 48.5793C50.0559 48.8581 51.5428 47.5571 52.7201 45.5439C53.0302 45.0172 53.2469 43.654 53.2469 42.9106C53.2469 42.1671 52.8438 41.3929 52.5342 41.0828C52.5342 40.5565 52.8746 40.2156 53.2772 40.2156C53.4009 40.2156 53.5251 40.2156 53.6489 40.3393C54.2686 40.959 54.6095 42.1363 54.6095 43.0343C54.6095 43.3444 54.6095 43.654 54.5474 43.9641C55.8484 42.3843 57.4898 40.3398 58.7606 39.9373C59.008 39.8136 59.256 39.8136 59.5035 39.8136C61.8267 39.7515 61.5171 41.858 61.5171 41.858C62.7555 40.4333 63.6232 39.9065 64.7692 39.9681C66.0086 40.0302 66.4419 40.8979 66.4419 41.5793C66.4106 42.3843 65.8232 43.3136 64.8015 43.3444C63.902 43.3444 63.3757 42.9106 63.0969 42.1055C62.5086 42.3227 62.2303 42.7252 62.106 43.5303C61.9197 44.5525 62.6944 45.3581 63.6853 45.3581C65.3894 45.3586 66.1334 44.6146 66.7531 44.057ZM68.6111 30.7069C68.6111 31.6984 65.1414 33.5878 62.1985 33.5878C57.6146 33.5878 52.8443 31.3882 50.6458 30.8928C48.2605 30.3352 46.0923 29.8706 44.3882 29.8706C38.4099 29.8706 35.7457 32.4418 35.87 34.7959C35.9321 35.756 36.7058 36.3757 37.8523 36.1585C39.0917 35.9418 40.8261 34.7645 41.2599 33.7423C41.3528 33.5256 41.6008 33.4943 41.6937 33.5565C41.8796 33.7115 41.8175 33.9282 41.8175 33.9282C41.6624 35.1363 39.8038 38.4818 36.5826 38.4818C34.7861 38.4818 33.578 36.809 33.6088 35.1671C33.6396 32.1004 36.7684 29.0029 44.4811 29.0029C45.9367 29.0029 47.5786 29.1266 49.3756 29.4367C51.4504 29.8084 56.6232 30.6756 60.8358 30.7377C62.3853 30.7377 64.3677 30.7999 65.9783 30.5519C67.6818 30.2731 67.3101 30.211 67.992 30.211C68.6111 30.211 68.6111 30.4589 68.6111 30.7069ZM73.1961 41.4863C72.1112 41.3626 70.748 42.2919 69.6334 43.655C69.0758 44.3364 68.4874 45.6374 68.394 46.4116C68.2708 47.1864 68.4874 47.9606 68.7662 48.1773C69.045 48.394 70.2844 49.0445 72.2046 47.0935C73.2885 46.0091 74.3415 44.2434 74.3415 44.2434L74.0006 44.15C74.6511 42.9424 74.5263 41.6409 73.1961 41.4863ZM50.5526 37.8312C50.5526 38.1721 51.0167 38.4509 51.4197 38.4822C51.3268 38.8226 51.3576 38.9776 51.2031 38.9468C50.2738 38.9468 49.9021 38.0483 49.9021 38.0483C48.6637 38.265 47.4556 38.4201 45.0081 38.668C38.8439 48.6424 36.9237 50.2843 33.1443 50.2843C30.4494 50.2843 28.0645 48.5186 28.0024 45.359C27.971 43.4388 29.5201 41.0842 32.4009 40.3716C32.7418 40.3716 32.8655 40.4958 32.8655 40.6817C32.8655 40.806 32.7418 40.9605 32.4625 41.0842C31.6261 41.3943 30.1706 43.0358 30.1706 44.554C30.1706 45.6999 30.8832 46.9702 32.0908 47.2484C32.4317 47.3419 32.7418 47.3106 33.0514 47.3106C36.056 47.3106 39.4323 43.9343 43.0873 38.7923C42.499 38.8231 39.9898 39.1024 39.3701 39.8145C39.0919 40.0312 38.906 39.9075 38.8439 39.6595C38.8439 39.5974 38.9368 39.3807 39.0302 39.2564C40.0212 38.1413 42.9949 37.8938 43.707 37.8009C46.495 33.5261 50.0879 30.8619 50.8314 30.8932C50.9551 30.8932 51.2344 31.0791 51.1101 31.3887C51.0788 31.4508 50.7692 31.7912 50.646 31.8841C50.0263 32.4417 47.9197 33.8049 45.6278 37.6766C47.4864 37.5837 49.6546 37.212 49.6546 37.212C49.6546 37.212 49.5308 36.8094 49.5308 36.4685C49.6238 35.1367 50.398 34.3311 51.3894 34.4862C51.9475 34.5791 52.3187 35.0438 52.3187 35.5392C52.3187 36.066 51.9162 36.8403 51.5132 37.212C51.2339 37.4281 50.9238 37.6453 50.5526 37.8312ZM50.3968 37.1495C50.3968 37.1495 50.7069 37.1808 51.171 36.654C51.3569 36.4682 51.667 35.9106 51.6049 35.5389C51.5736 35.353 51.4811 35.1363 51.2645 35.1671C50.7993 35.2606 50.5205 35.4772 50.3968 35.9419C50.2422 36.4374 50.3044 36.7783 50.3968 37.1495Z"
    fill="black" />
</svg>