<svg width="110" height="80" viewBox="0 0 110 80" fill="none" xmlns="http://www.w3.org/2000/svg">

  <path fill-rule="evenodd" clip-rule="evenodd"
    d="M91.1069 30.3129H75.7916C75.8687 28.6475 77.2575 27.3694 78.9163 27.3694V20.4752C64.7584 19.9717 58.123 15.3626 55.0754 13C52.0278 15.3626 45.3924 19.9717 31.2345 20.4752V27.3694C32.8933 27.3694 34.2435 28.6862 34.3593 30.3129H18.9282V49.3301H33.2405C33.2405 49.9498 32.9319 51.7314 29.0741 52.1575C31.6974 54.5975 47.0898 67.6888 55.0754 67.6888C63.061 67.6888 78.4534 54.5975 81.1153 52.1575C77.5275 51.7701 76.9489 50.1822 76.9489 49.3301H91.1454V30.3129H91.1069ZM32.7776 26.1687V21.8695C45.5853 21.2111 51.912 17.3379 55.0754 14.9753C58.4702 17.3767 64.5269 21.2111 77.3347 21.8695V26.1687C75.5987 26.7884 74.3256 28.3376 74.287 30.2742H72.7439C72.7825 28.0665 74.017 26.2461 75.7916 25.2004V23.2638C65.4142 22.5667 58.6631 19.3132 55.0754 16.8344C51.9506 19.1583 45.6239 22.2568 34.3593 23.2638V25.2004C36.1338 26.2461 37.3297 28.0665 37.4069 30.2742H35.8638C35.7866 28.3376 34.5136 26.8271 32.7776 26.1687ZM71.3166 28.57C71.3166 28.8411 71.3166 30.3129 71.3166 30.3129H69.6577V28.9573C69.6577 28.5313 69.1562 28.3376 68.9248 28.3376H67.3045V30.3517H65.6457V22.9152L69.6577 23.7673C70.2364 23.8835 71.3166 24.2708 71.3166 25.3941V26.556C71.3166 26.982 71.278 27.3694 70.7379 27.6405C71.0079 27.7954 71.3166 28.2602 71.3166 28.57ZM64.2183 24.1546V28.6475C64.2183 29.1897 63.9097 30.2742 62.4437 30.2742H60.2448C59.5118 30.2742 58.586 29.8869 58.586 28.57V21.9857C58.586 21.2111 59.3961 20.7076 60.2834 21.0174L63.2153 22.1406C63.9097 22.4505 64.2183 23.0702 64.2183 24.1546ZM52.0278 22.1019V20.2428L55.0754 18.5773L58.2773 20.3202V22.1793L56.0784 20.9787V30.2742H54.2653V20.9012L52.0278 22.1019ZM51.7963 22.0244V28.6088C51.7963 29.9256 50.8704 30.3129 50.1375 30.3129H47.9386C46.4726 30.3129 46.164 29.2285 46.164 28.6862V24.1546C46.164 23.0702 46.4726 22.4505 47.167 22.1793L50.0989 21.0561C51.0248 20.7076 51.7963 21.2111 51.7963 22.0244ZM42.1905 30.3129L40.8017 27.3694V30.3129H39.1429V24.1159L40.8017 23.8061L42.1133 26.6335L43.5793 23.2251L45.161 22.799V30.3129H43.5021V27.2532L42.1905 30.3129ZM77.5275 52.8159C73.3226 57.1151 60.6306 66.062 55.0754 66.062C49.5202 66.062 36.8668 57.1151 32.6618 52.8159C34.8222 51.8476 35.208 50.4533 35.3237 49.3301H37.0597C36.9439 50.3758 36.7511 52.0413 35.3237 53.0096C36.9439 54.5975 49.2502 64.4353 55.0754 64.4353C60.9006 64.4353 73.2454 54.5588 74.8657 53.0096C73.4383 52.0025 73.2454 50.3371 73.1297 49.3301H74.8657C74.9814 50.4533 75.3672 51.8476 77.5275 52.8159ZM40.686 53.8229C40.7631 53.9004 44.5437 56.844 44.5437 56.844V58.6256C44.5437 58.6256 39.2586 54.675 39.1043 54.5588C38.9114 54.4426 38.6414 53.9778 38.6028 53.668C38.5256 53.3581 38.6028 50.8019 38.6028 50.492C38.6028 50.2209 38.9114 49.3301 39.3743 49.3301H43.5021V51.0343H41.0332C40.6474 50.9955 40.4159 51.1117 40.4159 51.499V53.3969C40.4159 53.4743 40.5702 53.7455 40.686 53.8229ZM44.428 49.3301H46.164L47.0898 52.1962L48.5944 49.3301H50.2146L47.9 54.4039V60.446C47.9 60.7171 46.2797 59.8263 46.2411 59.6326C46.164 59.4002 46.2411 54.3652 46.2411 54.3652L44.428 49.3301ZM52.4907 60.2911C52.5679 60.4847 54.6896 61.4917 54.6896 61.4917V63.467C54.6896 63.467 51.2948 62.034 50.9862 61.7241C50.639 61.3755 50.6004 60.9882 50.6004 60.8333V50.7631C50.6004 50.1434 51.7963 49.3301 52.1049 49.3301H54.5739V51.1504C54.5739 51.2279 53.1465 51.2279 52.7993 51.1504C52.6064 51.1117 52.3364 51.3828 52.3364 52.2737V59.7101C52.3364 59.865 52.3364 60.1361 52.4907 60.2911ZM59.6276 59.8263V61.5692C59.6276 61.5692 56.8114 62.8086 56.387 63.041C56.117 63.1572 55.847 62.9635 55.847 62.5762V49.3301H57.7758V60.6009L59.6276 59.8263ZM63.7554 53.7454V55.2172H61.9808V58.7805L64.1411 57.7735V59.3228L61.2864 60.7558C60.9392 60.9108 60.4763 60.7558 60.4763 60.446V49.9885C60.4763 49.5625 60.8235 49.3301 61.1321 49.3301H64.4883V51.1504H62.0194V53.7454H63.7554V53.7454ZM69.2719 53.8616C69.2719 53.8616 66.4558 53.9391 65.9543 53.8616C65.4913 53.7842 65.2985 53.7067 65.2985 53.3581C65.2985 53.0483 65.2599 50.9181 65.2985 50.3371C65.3756 49.7174 66.3015 49.4075 66.7644 49.3688C67.1888 49.3301 70.9694 49.3688 70.9694 49.3688V51.0343H66.9187C66.7644 51.0343 66.803 52.4286 66.9187 52.4286H70.545C71.0465 52.4286 71.0079 52.5448 71.0079 52.7772V54.8299C71.0079 55.0623 70.6993 55.2947 70.545 55.4496C70.4679 55.5271 65.1442 58.7805 65.1442 58.7805V57.3475C65.1442 57.3475 69.3877 54.675 69.4263 54.4813C69.4648 54.094 69.2719 53.8616 69.2719 53.8616ZM89.5638 47.7421H20.5485V32.1333H89.6023V47.7421H89.5638ZM48.2472 23.6124L49.5974 23.0702C49.8289 22.954 50.1375 23.0702 50.1375 23.4575V28.0278C50.1375 28.3376 49.9832 28.57 49.636 28.57H48.4015C48.0157 28.57 47.8614 28.3764 47.8614 28.0665V24.4258C47.8614 24.0385 47.9 23.7673 48.2472 23.6124ZM62.5209 24.4258V28.0665C62.5209 28.3764 62.3666 28.57 61.9808 28.57H60.7463C60.3605 28.57 60.2448 28.3376 60.2448 28.0278V23.4575C60.2448 23.0702 60.5148 22.954 60.7849 23.0702L62.1351 23.6124C62.4823 23.7673 62.5209 24.0385 62.5209 24.4258ZM69.3105 25.3166C69.6577 25.3941 69.6577 25.7426 69.6577 26.0138C69.6577 26.3236 69.6191 26.5947 69.2719 26.5947H67.3045V24.8905L69.3105 25.3166ZM22.1302 33.5664V46.1154H87.9821V33.5664H22.1302ZM28.264 44.6436H26.798V40.4606H25.6407V44.6436H24.1748V34.8833H25.6407V38.7951H26.798V34.8833H28.264V44.6436ZM31.6588 44.6436L31.3888 42.0873H30.3086L30 44.6436H28.6883L29.8071 34.8833H31.9674L33.0862 44.6436H31.6588ZM37.7155 37.943C37.7155 38.6789 37.5998 39.2599 37.0597 39.6472C37.1368 39.7247 37.6769 40.112 37.7155 40.7704V44.6436H36.2881V41.3901C36.2881 40.8092 36.0567 40.6155 35.1308 40.6155V44.6823H33.6649V34.8833H36.0567C37.214 34.8833 37.7541 35.3093 37.7541 36.5487V37.943H37.7155ZM41.4961 44.6436H38.5642V34.8833H40.0302V43.133H41.4961V44.6436V44.6436ZM45.0067 44.6436H41.9976V34.8833H45.0067V36.3938H43.4636V38.7951H44.9295V40.3444H43.4636V43.133H45.0452V44.6436H45.0067ZM48.3629 44.6436H46.897V41.0028L45.3924 34.8833H46.897L47.6685 38.2916L48.4786 34.8833H49.8289L48.3243 40.9254V44.6436H48.3629ZM52.0664 40.3444H49.4045V39.105H52.0664V40.3444ZM56.6185 42.9007C56.6185 43.8302 56.0013 44.6823 54.8825 44.6823H52.7993V34.8833H54.5353C55.9627 34.8833 56.5799 35.3868 56.5799 37.0909V42.9007H56.6185ZM59.9362 44.6436L59.6661 42.0873H58.586L58.2773 44.6436H56.9657L58.0845 34.8833H60.2448L61.3635 44.6436H59.9362ZM63.9482 44.6436H62.328L60.9778 34.8833H62.4437L63.1381 40.7704L63.8325 34.8833H65.2985L63.9482 44.6436ZM67.1502 44.6436H65.6842V34.8833H67.1502V44.6436ZM71.8181 42.9007C71.8181 43.8302 71.2008 44.6823 70.0821 44.6823H67.9989V34.8833H69.7349C71.1622 34.8833 71.7795 35.3868 71.7795 37.0909V42.9007H71.8181ZM76.5245 38.1754H75.0586V36.8198C75.0586 36.3163 74.75 36.2001 74.4799 36.2001C74.1713 36.2001 73.9013 36.3163 73.9013 36.8198V37.9043C73.9013 38.6015 76.486 39.8409 76.486 40.8479V43.2105C76.486 44.4886 75.3672 44.876 74.4413 44.876C73.5541 44.876 72.4353 44.4886 72.4353 43.2105V41.0803H73.9013V42.8232C73.9013 43.3267 74.1713 43.4429 74.4413 43.4429C74.7114 43.4429 75.02 43.3267 75.02 42.8232V41.7774C75.02 40.4218 72.4353 40.0345 72.4353 38.4465V36.355C72.4353 35.0769 73.5541 34.6896 74.4413 34.6896C75.3286 34.6896 76.486 35.0769 76.486 36.355V38.1754H76.5245ZM81.231 43.2105C81.231 44.4886 80.0737 44.876 79.1864 44.876C78.2991 44.876 77.1418 44.4886 77.1418 43.2105V36.3163C77.1418 35.0382 78.2991 34.6509 79.1864 34.6509C80.0737 34.6509 81.231 35.0382 81.231 36.3163V43.2105ZM86.2075 44.6436H84.4329L83.2756 39.0662V44.6436H81.8097V34.8833H83.7771L84.7416 39.8409V34.8833H86.2075V44.6436ZM30.5015 40.4606L30.8487 36.6649H30.9258L31.1959 40.4606H30.5015ZM35.0922 36.2389H35.6709C36.0181 36.2389 36.211 36.4712 36.211 36.8586V38.3303C36.211 38.6789 36.0952 39.105 35.5937 39.105H35.0922V36.2389ZM54.3039 36.4325H54.6511C55.0368 36.4325 55.1911 36.51 55.1911 37.1684V42.3971C55.1911 43.0168 54.9982 43.133 54.6511 43.133H54.3039V36.4325ZM58.7789 40.4606L59.126 36.6649H59.2032L59.4732 40.4606H58.7789ZM69.4648 36.4325H69.812C70.1978 36.4325 70.3521 36.51 70.3521 37.1684V42.3971C70.3521 43.0168 70.1592 43.133 69.812 43.133H69.4648V36.4325ZM78.6077 42.5908V36.8586C78.6077 36.355 78.9163 36.2389 79.1864 36.2389C79.495 36.2389 79.765 36.355 79.765 36.8586V42.5908C79.765 43.0943 79.4564 43.2105 79.1864 43.2105C78.8778 43.2105 78.6077 43.0943 78.6077 42.5908Z"
    fill="black" />
</svg>