<svg width="171" height="27" viewBox="0 0 171 27" fill="none" xmlns="http://www.w3.org/2000/svg">
<path d="M8.7602 19.2919C6.31059 19.2919 4.23409 18.472 2.53072 16.8322C0.843574 15.1924 0 13.1185 0 10.6106C0 8.10261 0.843574 6.03677 2.53072 4.41303C4.23409 2.77322 6.31059 1.95331 8.7602 1.95331C11.226 1.95331 13.2944 2.77322 14.9653 4.41303C16.6525 6.03677 17.4961 8.10261 17.4961 10.6106C17.4961 12.0253 17.204 13.3275 16.62 14.5172C16.0522 15.6908 15.2655 16.6714 14.2597 17.4592L17.7394 21.8963H12.7023L10.6339 19.099C9.985 19.2276 9.36043 19.2919 8.7602 19.2919ZM5.45079 7.06567C4.63966 7.94988 4.23409 9.13152 4.23409 10.6106C4.23409 12.0896 4.63966 13.2712 5.45079 14.1555C6.27814 15.0397 7.37316 15.4818 8.73586 15.4818C10.1148 15.4818 11.2098 15.0397 12.0209 14.1555C12.8483 13.2712 13.262 12.0896 13.262 10.6106C13.262 9.13152 12.8483 7.94988 12.0209 7.06567C11.2098 6.18146 10.1148 5.73935 8.73586 5.73935C7.37316 5.73935 6.27814 6.18146 5.45079 7.06567Z" fill="black"/>
<path d="M29.54 5.667H33.7011V19.1231H29.54V17.1457C28.6802 18.5604 27.3094 19.2678 25.4276 19.2678C23.8702 19.2678 22.6048 18.7534 21.6315 17.7245C20.6744 16.6956 20.1958 15.2969 20.1958 13.5285V5.667H24.3325V12.9738C24.3325 13.842 24.5597 14.5172 25.0139 14.9995C25.4843 15.4657 26.1251 15.6988 26.9363 15.6988C27.7474 15.6988 28.3801 15.4657 28.8343 14.9995C29.3048 14.5172 29.54 13.842 29.54 12.9738V5.667Z" fill="black"/>
<path d="M41.152 4.14776C40.6815 4.61399 40.1056 4.8471 39.4243 4.8471C38.7429 4.8471 38.167 4.61399 37.6966 4.14776C37.2261 3.68154 36.9909 3.11082 36.9909 2.43561C36.9909 1.74431 37.2261 1.16555 37.6966 0.699332C38.167 0.233111 38.7429 0 39.4243 0C40.1056 0 40.6815 0.233111 41.152 0.699332C41.6225 1.16555 41.8577 1.74431 41.8577 2.43561C41.8577 3.11082 41.6225 3.68154 41.152 4.14776ZM37.3559 19.1231V5.667H41.517V19.1231H37.3559Z" fill="black"/>
<path d="M46.0501 17.411C44.801 16.157 44.1764 14.485 44.1764 12.3951C44.1764 10.3051 44.801 8.64118 46.0501 7.40328C47.3155 6.1493 48.9459 5.52232 50.9413 5.52232C52.596 5.52232 53.9992 5.93227 55.151 6.75218C56.3028 7.55601 57.0653 8.71352 57.4384 10.2247H52.9366C52.5473 9.42089 51.9065 9.01898 51.0143 9.01898C50.1382 9.01898 49.4812 9.33247 49.0432 9.95946C48.6214 10.5704 48.4105 11.3822 48.4105 12.3951C48.4105 13.4079 48.6214 14.2278 49.0432 14.8548C49.4812 15.4657 50.1139 15.7712 50.9413 15.7712C51.4604 15.7712 51.8659 15.6827 52.1579 15.5059C52.45 15.329 52.7095 15.0156 52.9366 14.5654H57.4384C57.0653 16.0123 56.2947 17.1618 55.1267 18.0138C53.9587 18.8659 52.5635 19.2919 50.9413 19.2919C48.9459 19.2919 47.3155 18.6649 46.0501 17.411Z" fill="black"/>
<path d="M63.926 19.1231H59.7649V1.27809H63.926V11.2858L68.1358 5.667H73.7326L67.9168 12.5398L73.7326 19.1231H68.2088L63.926 13.7455V19.1231Z" fill="black"/>
<path d="M166.486 0C167.065 0 167.621 0.145843 168.154 0.43753C168.686 0.726271 169.104 1.1417 169.407 1.68383C169.713 2.22595 169.866 2.79312 169.866 3.38533C169.866 3.9746 169.716 4.53735 169.416 5.07358C169.119 5.60687 168.702 6.02377 168.167 6.3243C167.635 6.62188 167.074 6.77067 166.486 6.77067C165.897 6.77067 165.335 6.62188 164.8 6.3243C164.268 6.02377 163.851 5.60687 163.551 5.07358C163.254 4.53735 163.105 3.9746 163.105 3.38533C163.105 2.79312 163.257 2.22595 163.56 1.68383C163.866 1.1417 164.285 0.726271 164.818 0.43753C165.35 0.145843 165.906 0 166.486 0ZM166.49 0.662925C166.025 0.662925 165.58 0.779305 165.153 1.01206C164.726 1.24482 164.39 1.57923 164.142 2.01529C163.898 2.45135 163.776 2.90803 163.776 3.38533C163.776 3.85969 163.895 4.31196 164.134 4.74212C164.375 5.17228 164.71 5.50817 165.14 5.74977C165.569 5.99136 166.019 6.11216 166.49 6.11216C166.964 6.11216 167.414 5.99136 167.84 5.74977C168.27 5.50817 168.605 5.17228 168.847 4.74212C169.088 4.31196 169.208 3.85969 169.208 3.38533C169.208 2.90803 169.085 2.45135 168.838 2.01529C168.594 1.57923 168.257 1.24482 167.827 1.01206C167.401 0.779305 166.955 0.662925 166.49 0.662925ZM164.959 5.19733V1.60428H165.687C166.37 1.60428 166.752 1.60722 166.834 1.61312C167.076 1.63374 167.262 1.68236 167.395 1.75896C167.53 1.83262 167.642 1.94753 167.73 2.10368C167.821 2.25689 167.867 2.42778 167.867 2.61634C167.867 2.87562 167.782 3.09807 167.611 3.28369C167.443 3.46636 167.206 3.57979 166.901 3.62399C167.009 3.66524 167.093 3.7109 167.152 3.76099C167.211 3.80813 167.292 3.89947 167.395 4.035C167.421 4.07036 167.51 4.2162 167.66 4.47253L168.083 5.19733H167.183L166.883 4.61396C166.68 4.22209 166.512 3.97607 166.38 3.8759C166.247 3.77278 166.08 3.72122 165.877 3.72122H165.687V5.19733H164.959ZM165.687 3.15552H165.983C166.403 3.15552 166.664 3.13932 166.764 3.10691C166.867 3.0745 166.948 3.01852 167.006 2.93897C167.065 2.85647 167.095 2.76366 167.095 2.66054C167.095 2.56036 167.065 2.47197 167.006 2.39537C166.951 2.31582 166.87 2.25984 166.764 2.22743C166.658 2.19207 166.397 2.17439 165.983 2.17439H165.687V3.15552Z" fill="black"/>
<path d="M80.6724 12.5054V19.2151H76.4696V1.96167H83.2776C85.2766 1.96167 86.8331 2.4778 87.9473 3.51005C89.0615 4.54231 89.6186 5.78757 89.6186 7.24584C89.6186 8.24532 89.3155 9.22023 88.7092 10.1706C88.103 11.1209 87.1117 11.7927 85.7353 12.1859L89.9627 19.2151H85.0472L81.1639 12.5054H80.6724ZM80.6724 5.15675V9.31035H83.2776C83.9166 9.31035 84.4163 9.12192 84.7768 8.74507C85.1537 8.36821 85.3421 7.87666 85.3421 7.27041C85.3421 6.64778 85.1537 6.13985 84.7768 5.74661C84.4 5.35337 83.9002 5.15675 83.2776 5.15675H80.6724Z" fill="#377C43"/>
<path d="M98.7115 19.3871C96.7125 19.3871 95.074 18.7481 93.796 17.4701C92.518 16.1757 91.8789 14.4634 91.8789 12.3334C91.8789 10.2033 92.5098 8.50748 93.7714 7.24584C95.0494 5.98419 96.6961 5.35337 98.7115 5.35337C100.727 5.35337 102.398 5.976 103.725 7.22126C105.053 8.46652 105.716 10.1951 105.716 12.4071C105.716 12.8823 105.683 13.3247 105.618 13.7343H96.18C96.2619 14.3406 96.5323 14.8403 96.9911 15.2335C97.4499 15.6104 97.9414 15.7988 98.4657 15.7988C99.0064 15.7988 99.4079 15.7497 99.67 15.6514C99.9322 15.5367 100.121 15.4302 100.235 15.3318C100.366 15.2172 100.53 15.0369 100.727 14.7911H105.274C104.88 16.1675 104.094 17.2817 102.914 18.1337C101.735 18.9693 100.334 19.3871 98.7115 19.3871ZM101.341 11.1045C101.276 10.4655 100.997 9.94937 100.506 9.55613C100.014 9.1465 99.4324 8.94169 98.7607 8.94169C98.0889 8.94169 97.5236 9.1465 97.0648 9.55613C96.606 9.94937 96.3193 10.4655 96.2046 11.1045H101.341Z" fill="#377C43"/>
<path d="M112.618 5.50083V7.51619C113.487 6.07431 114.871 5.35337 116.772 5.35337C118.345 5.35337 119.615 5.87769 120.581 6.92633C121.565 7.97497 122.056 9.40047 122.056 11.2028V19.2151H117.878V11.7681C117.878 10.8833 117.64 10.2033 117.165 9.72817C116.706 9.23662 116.067 8.99084 115.248 8.99084C114.429 8.99084 113.782 9.23662 113.307 9.72817C112.848 10.2033 112.618 10.8833 112.618 11.7681V19.2151H108.416V5.50083H112.618Z" fill="#377C43"/>
<path d="M131.45 19.3871C129.451 19.3871 127.812 18.7481 126.534 17.4701C125.256 16.1757 124.617 14.4634 124.617 12.3334C124.617 10.2033 125.248 8.50748 126.509 7.24584C127.787 5.98419 129.434 5.35337 131.45 5.35337C133.465 5.35337 135.136 5.976 136.463 7.22126C137.791 8.46652 138.454 10.1951 138.454 12.4071C138.454 12.8823 138.421 13.3247 138.356 13.7343H128.918C129 14.3406 129.27 14.8403 129.729 15.2335C130.188 15.6104 130.679 15.7988 131.204 15.7988C131.744 15.7988 132.146 15.7497 132.408 15.6514C132.67 15.5367 132.859 15.4302 132.973 15.3318C133.104 15.2172 133.268 15.0369 133.465 14.7911H138.012C137.618 16.1675 136.832 17.2817 135.652 18.1337C134.473 18.9693 133.072 19.3871 131.45 19.3871ZM134.079 11.1045C134.014 10.4655 133.735 9.94937 133.244 9.55613C132.752 9.1465 132.17 8.94169 131.499 8.94169C130.827 8.94169 130.262 9.1465 129.803 9.55613C129.344 9.94937 129.057 10.4655 128.943 11.1045H134.079Z" fill="#377C43"/>
<path d="M156.564 5.50083H160.521L156.416 19.2151H151.894L149.977 11.1045L148.035 19.2151H143.513L139.409 5.50083H143.611L145.75 15.1352L147.863 5.50083H152.312L154.425 15.1352L156.564 5.50083Z" fill="#377C43"/>
</svg>
