<svg width="110" height="80" viewBox="0 0 110 80" fill="none" xmlns="http://www.w3.org/2000/svg">

  <path
    d="M13.6919 37.1241H20.3518C20.3518 37.9886 20.3678 38.8371 20.3678 39.7176C20.3678 42.4392 19.8875 44.2002 17.326 44.2002C16.8137 44.2162 16.2854 44.2162 15.7731 44.2162L14.0121 44.2002L12.4752 44.1842C9.62554 44.1842 7.80047 43.832 7.6724 39.6376C7.65639 39.1253 7.64038 38.597 7.64038 38.0847C7.64038 33.7942 7.89653 31.777 11.6427 31.713L13.852 31.6649C14.1242 31.6489 14.3963 31.6489 14.6685 31.6489C15.3249 31.6489 15.9972 31.6809 16.6536 31.713C19.039 31.809 20.3198 32.4334 20.3198 35.7953V36.0195H17.4381C17.4061 35.5232 17.358 34.9949 16.9418 34.8188C16.5416 34.6267 16.1093 34.6267 15.6931 34.6267C14.5564 34.6267 13.4037 34.6106 12.2671 34.6106C10.7462 34.6106 10.6661 35.7153 10.6661 37.4443V38.597C10.6661 40.0698 10.8262 41.0304 12.139 41.2545C12.4912 41.3025 12.8594 41.3025 13.2116 41.3025C14.0921 41.3025 14.9726 41.3186 15.8532 41.3186C16.7337 41.3186 17.4541 41.0784 17.4541 39.8137C17.4541 39.7016 17.4541 39.5735 17.4381 39.4615H13.6919V37.1241Z"
    fill="black" />
  <path
    d="M22.3689 31.9851H32.903V34.7067H25.2506V36.7559H32.3907V39.1253H25.2506V41.2385H32.903V43.9601H22.3689V31.9851Z"
    fill="black" />
  <path
    d="M47.9837 43.9601H43.405L37.7217 34.9628V43.9601H35.0161V31.9851H39.5948L45.2781 40.9503V31.9851H47.9837V43.9601Z"
    fill="black" />
  <path
    d="M50.4492 31.9851H60.9834V34.7067H53.3309V36.7559H60.4711V39.1253H53.3309V41.2385H60.9834V43.9601H50.4492V31.9851Z"
    fill="black" />
  <path
    d="M63.1126 31.9851H71.9017C74.127 31.9851 75.0555 32.8816 75.0555 35.7793C75.0555 36.6118 75.0075 37.5243 74.6553 38.2448C74.2871 38.9652 73.6147 39.1253 73.0063 39.3814C74.207 39.5735 74.9275 40.0218 74.9275 41.6707V43.9601H72.0138V42.8074C72.0138 41.4946 71.9657 40.8863 70.765 40.8863H65.9622V43.9601H63.0806V31.9851H63.1126ZM70.3328 37.9726H70.701C72.0458 37.9726 72.1578 37.6364 72.1578 36.3076C72.1418 35.6833 72.1258 35.187 71.5975 34.9949C71.3414 34.8988 71.0372 34.8828 70.781 34.8828H70.5569H65.9943V37.9726H70.3328Z"
    fill="black" />
  <path
    d="M80.2586 41.7828L79.33 43.9601H76.1282L81.3952 31.9851H85.2695L90.4245 43.9601H87.2546L86.3581 41.7828H80.2586ZM83.2843 34.5626L81.2672 39.3014H85.3175L83.2843 34.5626Z"
    fill="black" />
  <path
    d="M103.008 39.3973C103.008 39.5574 103.024 39.7335 103.024 39.9256C103.024 43.2715 102.271 43.8959 99.4856 44.04C98.7492 44.072 98.0288 44.088 97.2923 44.088L95.5153 44.056C93.1139 44.024 91.2568 43.9279 91.0327 40.1817C90.9686 39.3332 90.9526 38.5168 90.9526 37.6683C90.9526 34.1782 91.3849 32.2411 94.4107 31.985C95.3072 31.8889 96.2037 31.8889 97.1002 31.8889C98.2689 31.8889 99.4696 31.8889 100.638 32.049C102.607 32.3212 102.88 34.0822 102.912 36.2114H100.126C100.126 35.0428 99.6297 34.8827 98.7972 34.8346C98.525 34.8186 98.2529 34.8186 97.9967 34.8186H97.1963L95.7394 34.8346C93.8663 34.8506 93.8503 35.7151 93.8503 37.9725C93.8503 40.4059 93.9464 41.0623 95.9956 41.1263L97.1162 41.1583C97.6125 41.1583 98.0928 41.1423 98.5891 41.1423C99.5657 41.1423 100.19 41.0302 100.19 39.3973H103.008Z"
    fill="black" />
  <path d="M7 50.0114L103.056 53.8696V45.6729L7 49.4991V50.0114Z" fill="black" />
</svg>