<svg width="110" height="80" viewBox="0 0 110 80" fill="none" xmlns="http://www.w3.org/2000/svg">

  <path d="M87.0513 33.4351H83.8499V44.1279H87.0513V33.4351Z" fill="black" />
  <path
    d="M17.5797 33.4358H7.01489V44.1287H10.3444V41.1673H17.5797C19.6287 41.1673 21.2614 39.5346 21.2614 37.5497V37.0694C21.3254 35.0525 19.6447 33.4358 17.5797 33.4358ZM16.7473 38.7502H10.3444V35.8529H16.7473C17.5317 35.8529 18.204 36.5252 18.204 37.3096C18.204 38.0939 17.5317 38.7502 16.7473 38.7502Z"
    fill="black" />
  <path
    d="M80.2323 40.5584C81.2568 39.8861 81.9291 38.8136 81.9291 37.485V37.0688C81.9291 35.0679 80.2964 33.4512 78.2474 33.4512H67.6826V44.1441H71.0121V41.1667H76.8068L78.5036 44.128H82.2493L80.2323 40.5584ZM70.9801 38.7496V35.8523H77.383C78.1674 35.8523 78.8397 36.5246 78.8397 37.3089C78.8397 38.0933 78.1674 38.7656 77.383 38.7656H70.9801V38.7496Z"
    fill="black" />
  <path
    d="M99.7932 37.4209H92.6699C92.2537 37.4209 91.8856 37.0527 91.8856 36.6365C91.8856 36.2203 92.2537 35.8522 92.6699 35.8522H101.906V33.4351H92.0616C90.2528 33.4351 88.7961 34.8917 88.7961 36.7005C88.7961 38.5094 90.2528 39.966 92.0616 39.966H99.1849C99.6011 39.966 99.9692 40.3342 99.9692 40.7504C99.9692 41.1666 99.6011 41.5348 99.1849 41.5348H89.1643V44.0639H99.7932C101.602 44.0639 103.059 42.6072 103.059 40.7984C103.059 38.9896 101.602 37.4209 99.7932 37.4209Z"
    fill="black" />
  <path
    d="M34.3233 35.2439L33.4109 37.773L38.069 38.4453V36.6365C38.069 34.8917 36.6123 33.4351 34.8675 33.4351H30.7537L31.602 36.2683L34.3233 35.2439Z"
    fill="black" />
  <path
    d="M33.4109 39.7099L34.3233 42.2391L31.602 41.2146L30.7537 44.0479H34.8675C36.6123 44.0479 38.069 42.5912 38.069 40.8464V39.0376L33.4109 39.7099Z"
    fill="black" />
  <path
    d="M22.8945 36.6368V38.4456L27.5527 37.7733L26.6402 35.2441L29.3615 36.2686L30.2099 33.4353H26.096C24.2872 33.4353 22.8945 34.876 22.8945 36.6368Z"
    fill="black" />
  <path
    d="M26.6398 42.2391L27.5522 39.7099L22.894 39.0376V40.8464C22.894 42.5912 24.3507 44.0479 26.0955 44.0479H30.2094L29.361 41.2146L26.6398 42.2391Z"
    fill="black" />
  <path
    d="M43.6876 41.6468C43.3835 41.6468 43.1434 41.4067 43.1434 41.0385V33.4351H39.9419V41.8389C39.9419 43.1035 40.9664 44.0799 42.1829 44.0799H50.2186V41.5988H43.6876V41.6468V41.6468Z"
    fill="black" />
  <path
    d="M62.2882 33.4351H55.4051C53.3561 33.4351 51.7234 35.0678 51.7234 37.0527V44.0639H54.9249V41.1666H62.7844V44.1279H65.9859V37.0527C65.9699 35.0518 64.3371 33.4351 62.2882 33.4351ZM62.7684 38.7495H54.9088V37.0047C54.9088 36.3964 55.3891 35.8522 56.0614 35.8522H58.8466H61.6319C62.2402 35.8522 62.7844 36.3964 62.7844 37.0047V38.7495H62.7684Z"
    fill="black" />
</svg>