<svg width="110" height="80" viewBox="0 0 110 80" fill="none" xmlns="http://www.w3.org/2000/svg">

  <path fill-rule="evenodd" clip-rule="evenodd"
    d="M7 51.7462H29.0562V29.6887H7V51.7462V51.7462ZM21.1364 31.3736C25.035 32.6511 27.852 36.347 27.8628 40.7133C27.8733 45.0089 25.1128 48.6961 21.1364 50.0578V31.3736ZM18.0242 30.8742C18.7285 30.8742 19.4785 30.968 20.1038 31.0922C20.1038 36.0895 15.2711 40.2018 10.2829 40.2018L8.19721 40.1987C8.53896 35.076 12.7776 30.8742 18.0242 30.8742ZM10.2846 41.2422C15.2715 41.2422 20.1029 45.3502 20.1029 50.3431C19.4784 50.4708 18.6916 50.565 18.0242 50.565C12.7759 50.5581 8.39392 46.3429 8.19547 41.2427H10.2846V41.2422Z"
    fill="black" />
  <path fill-rule="evenodd" clip-rule="evenodd"
    d="M36.4387 42.6558V41.2658H41.0278V39.4928H36.4379V36.9121H41.3205V35.1443H34.5593V38.9439V42.5755C34.5593 44.4536 35.3596 45.7385 37.2373 46.003C37.2751 46.0121 37.312 46.0191 37.3463 46.0195H37.3806C37.573 46.0412 37.7697 46.0555 37.9751 46.0555H41.4508V44.2895H37.9903C37.3936 44.2895 36.4387 43.9951 36.4387 42.6558Z"
    fill="black" />
  <path fill-rule="evenodd" clip-rule="evenodd" d="M42.7861 40.3004V46.0581H44.6655V40.2626V35.1416H42.7861V40.3004Z"
    fill="black" />
  <path fill-rule="evenodd" clip-rule="evenodd"
    d="M50.0545 37.9146C47.6787 37.9146 45.9014 39.5508 45.9014 42.0994V42.1628C45.9014 44.6484 47.6162 46.2529 50.1018 46.2529C51.2973 46.2529 52.4142 45.9225 53.4368 44.8369L52.3043 43.7356C51.7063 44.3336 51.1245 44.6484 50.1648 44.6484C48.7648 44.6484 47.8364 43.8303 47.7734 42.5718H53.9405C53.9722 42.257 53.9722 41.9113 53.9722 41.9113C53.9718 39.6928 52.4142 37.9146 50.0545 37.9146ZM47.8203 41.25C47.8989 40.2903 48.8746 39.5195 50.0545 39.5195C51.1557 39.5195 52.0524 40.3064 52.0524 41.25H47.8203Z"
    fill="black" />
  <path fill-rule="evenodd" clip-rule="evenodd"
    d="M59.2527 39.5986C60.1021 39.5986 60.7313 39.9135 61.2663 40.4641L62.4309 39.2525C61.5181 38.2768 60.4325 37.8838 59.2531 37.8838C56.8617 37.8838 54.9424 39.6616 54.9424 42.0842C54.9424 44.5069 56.8617 46.2851 59.2531 46.2851C60.433 46.2851 61.5186 45.8917 62.4309 44.9164L61.2663 43.7048C60.7317 44.2559 60.1021 44.5699 59.2527 44.5699C57.8683 44.5699 56.814 43.5159 56.814 42.0842C56.814 40.653 57.8683 39.5986 59.2527 39.5986Z"
    fill="black" />
  <path fill-rule="evenodd" clip-rule="evenodd"
    d="M65.4798 42.6587H65.4776V39.8717H67.1872V38.1642H65.4802V35.1423H63.6003V39.0579V42.7703L63.606 42.7698C63.6594 44.5433 64.4654 45.7514 66.2788 46.0063C66.3165 46.0154 66.3535 46.0223 66.3873 46.0232H66.4221C66.614 46.0445 66.8111 46.0588 67.0165 46.0588H67.215L67.2224 44.2932H67.0322C66.4347 44.2927 65.4798 43.9979 65.4798 42.6587Z"
    fill="black" />
  <path fill-rule="evenodd" clip-rule="evenodd"
    d="M70.6325 39.3386V38.1649H68.7683V42.0331V46.0586H70.6325V41.9076C70.6325 40.6079 71.4624 39.7933 72.7616 39.7933C73.0595 39.7933 73.3261 39.8246 73.5454 39.8719V38.055C73.4668 38.0394 73.1854 38.0085 72.9818 38.0085C71.8536 38.0081 71.0081 38.5249 70.6325 39.3386Z"
    fill="black" />
  <path fill-rule="evenodd" clip-rule="evenodd"
    d="M78.1407 37.9297C75.7437 37.9297 73.833 39.7461 73.833 42.1115C73.833 44.4755 75.7437 46.2937 78.1407 46.2937C80.5208 46.2937 82.4476 44.4755 82.4476 42.1115C82.4476 39.7457 80.5213 37.9297 78.1407 37.9297ZM78.1407 44.5862C76.7468 44.5862 75.6977 43.5054 75.6977 42.1115C75.6977 40.7171 76.7468 39.6367 78.1407 39.6367C79.5194 39.6367 80.5838 40.7171 80.5838 42.1115C80.5838 43.505 79.5194 44.5862 78.1407 44.5862Z"
    fill="black" />
  <path fill-rule="evenodd" clip-rule="evenodd" d="M83.6033 40.112V46.0581H85.484V40.1875V35.1416H83.6033V40.112Z"
    fill="black" />
  <path fill-rule="evenodd" clip-rule="evenodd"
    d="M92.2623 42.7533C92.2623 44.0061 91.5267 44.5393 90.5388 44.5393C89.5527 44.5393 88.8162 44.0056 88.8162 42.7698V38.165H86.9211V40.4513V42.9265C86.9211 45.182 88.5656 46.2628 90.5236 46.2628C92.4973 46.2628 94.1565 45.1668 94.1565 42.8796V40.4518V38.1655H92.2623V42.7533Z"
    fill="black" />
  <path fill-rule="evenodd" clip-rule="evenodd"
    d="M101.268 43.5345L100.083 41.8765L101.551 39.8773L102.807 38.165H100.756L99.0487 40.5295L97.3256 38.165H95.2898L96.4571 39.7618L98.0151 41.8926L96.3824 44.1659L95.0232 46.0583H97.0442L99.0487 43.2704L101.053 46.0583H103.074L101.268 43.5345Z"
    fill="black" />
</svg>