<svg width="176" height="27" viewBox="0 0 176 27" fill="none" xmlns="http://www.w3.org/2000/svg">
<path d="M8.7602 19.5668C6.31059 19.5668 4.23409 18.7469 2.53072 17.1071C0.843574 15.4673 0 13.3934 0 10.8855C0 8.37751 0.843574 6.31167 2.53072 4.68793C4.23409 3.04812 6.31059 2.22821 8.7602 2.22821C11.226 2.22821 13.2944 3.04812 14.9653 4.68793C16.6525 6.31167 17.4961 8.37751 17.4961 10.8855C17.4961 12.3002 17.204 13.6024 16.62 14.7921C16.0522 15.9657 15.2655 16.9463 14.2597 17.7341L17.7394 22.1712H12.7023L10.6339 19.3739C9.985 19.5025 9.36043 19.5668 8.7602 19.5668ZM5.45079 7.34057C4.63966 8.22479 4.23409 9.40642 4.23409 10.8855C4.23409 12.3645 4.63966 13.5461 5.45079 14.4304C6.27814 15.3146 7.37316 15.7567 8.73586 15.7567C10.1148 15.7567 11.2098 15.3146 12.0209 14.4304C12.8483 13.5461 13.262 12.3645 13.262 10.8855C13.262 9.40642 12.8483 8.22479 12.0209 7.34057C11.2098 6.45636 10.1148 6.01425 8.73586 6.01425C7.37316 6.01425 6.27814 6.45636 5.45079 7.34057Z" fill="black"/>
<path d="M29.54 5.94191H33.7011V19.398H29.54V17.4206C28.6802 18.8353 27.3094 19.5427 25.4276 19.5427C23.8702 19.5427 22.6048 19.0283 21.6315 17.9994C20.6744 16.9705 20.1958 15.5718 20.1958 13.8034V5.94191H24.3325V13.2487C24.3325 14.1169 24.5597 14.7921 25.0139 15.2744C25.4843 15.7406 26.1251 15.9737 26.9363 15.9737C27.7474 15.9737 28.3801 15.7406 28.8343 15.2744C29.3048 14.7921 29.54 14.1169 29.54 13.2487V5.94191Z" fill="black"/>
<path d="M41.152 4.42267C40.6815 4.88889 40.1056 5.122 39.4243 5.122C38.7429 5.122 38.167 4.88889 37.6966 4.42267C37.2261 3.95645 36.9909 3.38573 36.9909 2.71051C36.9909 2.01921 37.2261 1.44046 37.6966 0.974235C38.167 0.508013 38.7429 0.274902 39.4243 0.274902C40.1056 0.274902 40.6815 0.508013 41.152 0.974235C41.6225 1.44046 41.8577 2.01921 41.8577 2.71051C41.8577 3.38573 41.6225 3.95645 41.152 4.42267ZM37.3559 19.398V5.94191H41.517V19.398H37.3559Z" fill="black"/>
<path d="M46.0501 17.6859C44.801 16.4319 44.1764 14.7599 44.1764 12.67C44.1764 10.58 44.801 8.91608 46.0501 7.67818C47.3155 6.42421 48.9459 5.79722 50.9413 5.79722C52.596 5.79722 53.9992 6.20717 55.151 7.02708C56.3028 7.83091 57.0653 8.98843 57.4384 10.4996H52.9366C52.5473 9.6958 51.9065 9.29388 51.0143 9.29388C50.1382 9.29388 49.4812 9.60737 49.0432 10.2344C48.6214 10.8453 48.4105 11.6571 48.4105 12.67C48.4105 13.6828 48.6214 14.5027 49.0432 15.1297C49.4812 15.7406 50.1139 16.0461 50.9413 16.0461C51.4604 16.0461 51.8659 15.9576 52.1579 15.7808C52.45 15.604 52.7095 15.2905 52.9366 14.8403H57.4384C57.0653 16.2872 56.2947 17.4367 55.1267 18.2887C53.9587 19.1408 52.5635 19.5668 50.9413 19.5668C48.9459 19.5668 47.3155 18.9398 46.0501 17.6859Z" fill="black"/>
<path d="M63.926 19.398H59.7649V1.55299H63.926V11.5607L68.1358 5.94191H73.7326L67.9168 12.8147L73.7326 19.398H68.2088L63.926 14.0204V19.398Z" fill="black"/>
<path d="M171.848 0.274902C172.428 0.274902 172.984 0.420746 173.516 0.712433C174.049 1.00117 174.466 1.41661 174.769 1.95873C175.075 2.50086 175.228 3.06802 175.228 3.66024C175.228 4.2495 175.078 4.81225 174.778 5.34848C174.481 5.88177 174.065 6.29868 173.529 6.5992C172.997 6.89678 172.436 7.04557 171.848 7.04557C171.26 7.04557 170.698 6.89678 170.162 6.5992C169.63 6.29868 169.214 5.88177 168.913 5.34848C168.616 4.81225 168.468 4.2495 168.468 3.66024C168.468 3.06802 168.619 2.50086 168.922 1.95873C169.228 1.41661 169.647 1.00117 170.18 0.712433C170.712 0.420746 171.268 0.274902 171.848 0.274902ZM171.852 0.937827C171.388 0.937827 170.942 1.05421 170.515 1.28697C170.089 1.51973 169.752 1.85414 169.505 2.29019C169.261 2.72625 169.139 3.18293 169.139 3.66024C169.139 4.1346 169.258 4.58686 169.496 5.01702C169.737 5.44719 170.073 5.78307 170.502 6.02467C170.932 6.26627 171.382 6.38707 171.852 6.38707C172.326 6.38707 172.776 6.26627 173.203 6.02467C173.632 5.78307 173.968 5.44719 174.209 5.01702C174.45 4.58686 174.571 4.1346 174.571 3.66024C174.571 3.18293 174.447 2.72625 174.2 2.29019C173.956 1.85414 173.619 1.51973 173.19 1.28697C172.763 1.05421 172.317 0.937827 171.852 0.937827ZM170.321 5.47223V1.87918H171.049C171.732 1.87918 172.114 1.88213 172.197 1.88802C172.438 1.90864 172.625 1.95726 172.757 2.03386C172.892 2.10752 173.004 2.22243 173.092 2.37858C173.184 2.53179 173.229 2.70268 173.229 2.89124C173.229 3.15052 173.144 3.37297 172.973 3.55859C172.806 3.74126 172.569 3.85469 172.263 3.89889C172.372 3.94014 172.456 3.98581 172.514 4.03589C172.573 4.08304 172.654 4.17437 172.757 4.3099C172.784 4.34526 172.872 4.4911 173.022 4.74743L173.445 5.47223H172.545L172.245 4.88886C172.042 4.497 171.874 4.25098 171.742 4.1508C171.61 4.04768 171.442 3.99612 171.239 3.99612H171.049V5.47223H170.321ZM171.049 3.43042H171.345C171.766 3.43042 172.026 3.41422 172.126 3.38181C172.229 3.3494 172.31 3.29342 172.369 3.21387C172.428 3.13137 172.457 3.03856 172.457 2.93544C172.457 2.83526 172.428 2.74687 172.369 2.67027C172.313 2.59072 172.232 2.53474 172.126 2.50233C172.02 2.46697 171.76 2.4493 171.345 2.4493H171.049V3.43042Z" fill="black"/>
<path d="M76.9165 19.49V2.23656H81.1193V19.49H76.9165Z" fill="#2F64AA"/>
<path d="M89.0158 5.77572V7.79108C89.8842 6.3492 91.2687 5.62825 93.1694 5.62825C94.7423 5.62825 96.0122 6.15258 96.9789 7.20122C97.962 8.24986 98.4535 9.67535 98.4535 11.4777V19.49H94.2753V12.043C94.2753 11.1582 94.0378 10.4782 93.5626 10.0031C93.1038 9.5115 92.4648 9.26573 91.6455 9.26573C90.8263 9.26573 90.1791 9.5115 89.7039 10.0031C89.2451 10.4782 89.0158 11.1582 89.0158 12.043V19.49H84.813V5.77572H89.0158Z" fill="#2F64AA"/>
<path d="M101.088 9.90474C101.088 8.69225 101.604 7.67638 102.637 6.85713C103.669 6.03788 105.061 5.62825 106.815 5.62825C108.584 5.62825 110.01 6.02969 111.091 6.83255C112.173 7.63542 112.746 8.73321 112.812 10.1259H108.511C108.461 9.65078 108.298 9.33127 108.019 9.16742C107.74 8.98718 107.323 8.89707 106.766 8.89707C105.668 8.89707 105.119 9.23296 105.119 9.90474C105.119 10.511 105.791 10.9288 107.134 11.1582C108.494 11.3876 109.731 11.7399 110.845 12.215C111.419 12.4444 111.894 12.8295 112.271 13.3702C112.664 13.8945 112.861 14.5417 112.861 15.3118C112.861 16.5898 112.312 17.6385 111.214 18.4577C110.116 19.2606 108.732 19.662 107.06 19.662C105.389 19.662 103.996 19.2852 102.882 18.5315C101.768 17.7614 101.162 16.6308 101.064 15.1398H105.365C105.479 15.9754 106.069 16.3932 107.134 16.3932C107.626 16.3932 108.027 16.2785 108.338 16.0491C108.666 15.8197 108.83 15.5248 108.83 15.1643C108.83 14.8039 108.56 14.5171 108.019 14.3041C107.495 14.0911 106.856 13.9109 106.102 13.7634C105.348 13.616 104.586 13.4357 103.816 13.2227C103.063 12.9933 102.415 12.6083 101.875 12.0676C101.35 11.5105 101.088 10.7895 101.088 9.90474Z" fill="#2F64AA"/>
<path d="M119.489 4.22733C119.014 4.7025 118.432 4.94008 117.744 4.94008C117.056 4.94008 116.474 4.7025 115.999 4.22733C115.524 3.75217 115.286 3.1705 115.286 2.48233C115.286 1.77778 115.524 1.18791 115.999 0.712748C116.474 0.237583 117.056 0 117.744 0C118.432 0 119.014 0.237583 119.489 0.712748C119.964 1.18791 120.202 1.77778 120.202 2.48233C120.202 3.1705 119.964 3.75217 119.489 4.22733ZM115.655 19.49V5.77572H119.858V19.49H115.655Z" fill="#2F64AA"/>
<path d="M124.362 17.6958C123.15 16.385 122.544 14.7056 122.544 12.6574C122.544 10.6093 123.15 8.92983 124.362 7.61903C125.575 6.29185 127.05 5.62825 128.786 5.62825C130.54 5.62825 131.883 6.27546 132.817 7.56988V5.77572H137.02V19.4162C137.02 21.3333 136.496 22.9308 135.447 24.2089C134.923 24.8643 134.202 25.3722 133.284 25.7327C132.383 26.0931 131.334 26.2734 130.138 26.2734C128.041 26.2734 126.378 25.8474 125.149 24.9953C123.92 24.1433 123.224 22.8407 123.06 21.0875H127.189C127.582 22.1198 128.565 22.6359 130.138 22.6359C130.908 22.6359 131.547 22.3737 132.055 21.8494C132.563 21.3415 132.817 20.5304 132.817 19.4162V17.4992C131.801 18.9411 130.441 19.662 128.737 19.662C127.033 19.662 125.575 19.0066 124.362 17.6958ZM131.908 15.1398C132.514 14.5499 132.817 13.7143 132.817 12.6328C132.817 11.5514 132.514 10.724 131.908 10.1505C131.302 9.56066 130.605 9.26573 129.819 9.26573C129.032 9.26573 128.336 9.56066 127.73 10.1505C127.123 10.7404 126.82 11.576 126.82 12.6574C126.82 13.7388 127.123 14.5745 127.73 15.1643C128.336 15.7378 129.032 16.0245 129.819 16.0245C130.605 16.0245 131.302 15.7296 131.908 15.1398Z" fill="#2F64AA"/>
<path d="M144.915 1.30261V7.79108C145.784 6.3492 147.168 5.62825 149.069 5.62825C150.642 5.62825 151.912 6.15258 152.878 7.20122C153.861 8.24986 154.353 9.67535 154.353 11.4777V19.49H150.175V12.043C150.175 11.1582 149.937 10.4782 149.462 10.0031C149.003 9.5115 148.364 9.26573 147.545 9.26573C146.726 9.26573 146.079 9.5115 145.603 10.0031C145.145 10.4782 144.915 11.1582 144.915 12.043V19.49H140.712V1.30261H144.915Z" fill="#2F64AA"/>
<path d="M163.746 15.9262H165.246V19.49H163.107C161.567 19.49 160.371 19.1541 159.519 18.4823C158.683 17.7941 158.266 16.6226 158.266 14.9677V9.26573H156.988V5.77572H158.266V2.43318H162.468V5.77572H165.221V9.26573H162.468V14.9677C162.468 15.6067 162.894 15.9262 163.746 15.9262Z" fill="#2F64AA"/>
</svg>
