<svg width="155" height="27" viewBox="0 0 155 27" fill="none" xmlns="http://www.w3.org/2000/svg">
<g clip-path="url(#clip0_348_401)">
<path d="M8.7602 19.8256C6.31059 19.8256 4.23409 19.0057 2.53072 17.3659C0.843574 15.7261 0 13.6522 0 11.1443C0 8.6363 0.843574 6.57046 2.53072 4.94672C4.23409 3.30691 6.31059 2.487 8.7602 2.487C11.226 2.487 13.2944 3.30691 14.9653 4.94672C16.6525 6.57046 17.4961 8.6363 17.4961 11.1443C17.4961 12.559 17.2041 13.8612 16.62 15.0509C16.0522 16.2245 15.2655 17.2051 14.2597 17.9929L17.7394 22.43H12.7023L10.6339 19.6327C9.985 19.7613 9.36043 19.8256 8.7602 19.8256ZM5.45079 7.59936C4.63966 8.48358 4.23409 9.66521 4.23409 11.1443C4.23409 12.6233 4.63966 13.8049 5.45079 14.6891C6.27814 15.5734 7.37316 16.0155 8.73586 16.0155C10.1148 16.0155 11.2098 15.5734 12.0209 14.6891C12.8483 13.8049 13.262 12.6233 13.262 11.1443C13.262 9.66521 12.8483 8.48358 12.0209 7.59936C11.2098 6.71515 10.1148 6.27304 8.73586 6.27304C7.37316 6.27304 6.27814 6.71515 5.45079 7.59936Z" fill="black"/>
<path d="M29.54 6.2007H33.7011V19.6568H29.54V17.6794C28.6802 19.0941 27.3094 19.8015 25.4276 19.8015C23.8702 19.8015 22.6048 19.2871 21.6315 18.2582C20.6744 17.2293 20.1958 15.8306 20.1958 14.0622V6.2007H24.3325V13.5075C24.3325 14.3757 24.5597 15.0509 25.0139 15.5332C25.4843 15.9994 26.1251 16.2325 26.9363 16.2325C27.7474 16.2325 28.3801 15.9994 28.8343 15.5332C29.3048 15.0509 29.54 14.3757 29.54 13.5075V6.2007Z" fill="black"/>
<path d="M41.152 4.68146C40.6815 5.14768 40.1056 5.38079 39.4243 5.38079C38.743 5.38079 38.167 5.14768 37.6966 4.68146C37.2261 4.21523 36.9909 3.64452 36.9909 2.9693C36.9909 2.278 37.2261 1.69925 37.6966 1.23302C38.167 0.766802 38.743 0.533691 39.4243 0.533691C40.1056 0.533691 40.6815 0.766802 41.152 1.23302C41.6225 1.69925 41.8577 2.278 41.8577 2.9693C41.8577 3.64452 41.6225 4.21523 41.152 4.68146ZM37.3559 19.6568V6.2007H41.517V19.6568H37.3559Z" fill="black"/>
<path d="M46.0501 17.9447C44.801 16.6907 44.1764 15.0187 44.1764 12.9288C44.1764 10.8388 44.801 9.17487 46.0501 7.93697C47.3155 6.683 48.9459 6.05601 50.9413 6.05601C52.596 6.05601 53.9992 6.46596 55.151 7.28587C56.3028 8.0897 57.0653 9.24721 57.4384 10.7584H52.9366C52.5473 9.95459 51.9065 9.55267 51.0143 9.55267C50.1382 9.55267 49.4812 9.86616 49.0432 10.4932C48.6214 11.1041 48.4105 11.9159 48.4105 12.9288C48.4105 13.9416 48.6214 14.7615 49.0432 15.3885C49.4812 15.9994 50.1139 16.3048 50.9413 16.3048C51.4604 16.3048 51.8659 16.2164 52.1579 16.0396C52.45 15.8627 52.7095 15.5492 52.9366 15.0991H57.4384C57.0653 16.546 56.2947 17.6955 55.1267 18.5475C53.9587 19.3996 52.5635 19.8256 50.9413 19.8256C48.9459 19.8256 47.3155 19.1986 46.0501 17.9447Z" fill="black"/>
<path d="M63.926 19.6568H59.7649V1.81178H63.926V11.8195L68.1358 6.2007H73.7326L67.9168 13.0734L73.7326 19.6568H68.2088L63.926 14.2792V19.6568Z" fill="black"/>
<path d="M151.739 0.533691C152.319 0.533691 152.875 0.679535 153.407 0.971222C153.94 1.25996 154.357 1.67539 154.66 2.21752C154.966 2.75964 155.119 3.32681 155.119 3.91903C155.119 4.50829 154.969 5.07104 154.669 5.60727C154.372 6.14056 153.956 6.55747 153.42 6.85799C152.888 7.15557 152.328 7.30436 151.739 7.30436C151.151 7.30436 150.589 7.15557 150.053 6.85799C149.521 6.55747 149.105 6.14056 148.805 5.60727C148.507 5.07104 148.359 4.50829 148.359 3.91903C148.359 3.32681 148.51 2.75964 148.813 2.21752C149.119 1.67539 149.539 1.25996 150.071 0.971222C150.604 0.679535 151.16 0.533691 151.739 0.533691ZM151.744 1.19662C151.279 1.19662 150.833 1.313 150.406 1.54576C149.98 1.77852 149.643 2.11292 149.396 2.54898C149.152 2.98504 149.03 3.44172 149.03 3.91903C149.03 4.39338 149.149 4.84565 149.387 5.27581C149.628 5.70598 149.964 6.04186 150.393 6.28346C150.823 6.52506 151.273 6.64585 151.744 6.64585C152.217 6.64585 152.667 6.52506 153.094 6.28346C153.523 6.04186 153.859 5.70598 154.1 5.27581C154.341 4.84565 154.462 4.39338 154.462 3.91903C154.462 3.44172 154.338 2.98504 154.091 2.54898C153.847 2.11292 153.51 1.77852 153.081 1.54576C152.654 1.313 152.208 1.19662 151.744 1.19662ZM150.212 5.73102V2.13797H150.94C151.623 2.13797 152.005 2.14091 152.088 2.14681C152.329 2.16743 152.516 2.21605 152.648 2.29265C152.784 2.36631 152.895 2.48122 152.984 2.63737C153.075 2.79058 153.12 2.96147 153.12 3.15003C153.12 3.40931 153.035 3.63176 152.864 3.81738C152.697 4.00005 152.46 4.11348 152.154 4.15768C152.263 4.19893 152.347 4.2446 152.405 4.29468C152.464 4.34182 152.545 4.43316 152.648 4.56869C152.675 4.60405 152.763 4.74989 152.913 5.00622L153.337 5.73102H152.436L152.136 5.14765C151.933 4.75578 151.766 4.50977 151.633 4.40959C151.501 4.30647 151.333 4.25491 151.13 4.25491H150.94V5.73102H150.212ZM150.94 3.68921H151.236C151.657 3.68921 151.917 3.67301 152.017 3.6406C152.12 3.60819 152.201 3.55221 152.26 3.47266C152.319 3.39016 152.348 3.29735 152.348 3.19423C152.348 3.09405 152.319 3.00566 152.26 2.92906C152.204 2.84951 152.123 2.79353 152.017 2.76112C151.911 2.72576 151.651 2.70808 151.236 2.70808H150.94V3.68921Z" fill="black"/>
<path d="M77.1576 17.2989C75.4701 15.6656 74.6263 13.6 74.6263 11.102C74.6263 8.60406 75.4701 6.54643 77.1576 4.92916C78.8613 3.29587 80.9382 2.47923 83.3884 2.47923C85.2868 2.47923 86.9743 2.97562 88.4508 3.9684C89.9274 4.96118 90.9578 6.33827 91.5419 8.09966H86.5767C85.9277 6.86669 84.8893 6.2502 83.4614 6.2502C82.0335 6.2502 80.9058 6.69055 80.0783 7.57124C79.267 8.45194 78.8613 9.62887 78.8613 11.102C78.8613 12.5752 79.267 13.7521 80.0783 14.6328C80.9058 15.5135 82.0335 15.9539 83.4614 15.9539C84.8893 15.9539 85.9277 15.3374 86.5767 14.1044H91.5419C90.9578 15.8658 89.9274 17.2429 88.4508 18.2357C86.9743 19.2284 85.2868 19.7248 83.3884 19.7248C80.9382 19.7248 78.8613 18.9162 77.1576 17.2989Z" fill="#7E6524"/>
<path d="M94.2112 19.5807V1.8067H98.3731V19.5807H94.2112Z" fill="#7E6524"/>
<path d="M110.306 15.3294C110.907 14.7529 111.207 13.9363 111.207 12.8794C111.207 11.8226 110.907 11.014 110.306 10.4535C109.706 9.87706 109.016 9.58883 108.237 9.58883C107.459 9.58883 106.769 9.87706 106.169 10.4535C105.568 11.03 105.268 11.8466 105.268 12.9034C105.268 13.9603 105.568 14.7769 106.169 15.3534C106.769 15.9138 107.459 16.194 108.237 16.194C109.016 16.194 109.706 15.9058 110.306 15.3294ZM102.834 17.8273C101.633 16.5463 101.033 14.905 101.033 12.9034C101.033 10.9019 101.633 9.26058 102.834 7.97957C104.035 6.68254 105.495 6.03403 107.215 6.03403C108.951 6.03403 110.282 6.66653 111.207 7.93153V6.17814H115.369V19.5807H111.207V17.6352C110.201 19.0443 108.854 19.7488 107.167 19.7488C105.479 19.7488 104.035 19.1083 102.834 17.8273Z" fill="#7E6524"/>
<path d="M122.822 4.66495C122.352 5.12932 121.776 5.3615 121.094 5.3615C120.413 5.3615 119.837 5.12932 119.366 4.66495C118.896 4.20058 118.66 3.63214 118.66 2.95961C118.66 2.27106 118.896 1.69461 119.366 1.23024C119.837 0.765875 120.413 0.533691 121.094 0.533691C121.776 0.533691 122.352 0.765875 122.822 1.23024C123.293 1.69461 123.528 2.27106 123.528 2.95961C123.528 3.63214 123.293 4.20058 122.822 4.66495ZM119.025 19.5807V6.17814H123.187V19.5807H119.025Z" fill="#7E6524"/>
<path d="M131.007 6.17814V8.1477C131.867 6.73859 133.238 6.03403 135.121 6.03403C136.127 6.03403 137.019 6.25821 137.798 6.70656C138.593 7.15492 139.209 7.79542 139.648 8.62808C140.151 7.84346 140.8 7.21897 141.595 6.7546C142.406 6.27422 143.307 6.03403 144.296 6.03403C145.951 6.03403 147.266 6.53843 148.239 7.54722C149.213 8.55602 149.7 9.95713 149.7 11.7505V19.5807H145.562V12.303C145.562 11.4383 145.327 10.7738 144.856 10.3094C144.402 9.82902 143.769 9.58883 142.958 9.58883C142.146 9.58883 141.505 9.82902 141.035 10.3094C140.581 10.7738 140.353 11.4383 140.353 12.303V19.5807H136.216V12.303C136.216 11.4383 135.98 10.7738 135.51 10.3094C135.056 9.82902 134.423 9.58883 133.612 9.58883C132.8 9.58883 132.159 9.82902 131.689 10.3094C131.234 10.7738 131.007 11.4383 131.007 12.303V19.5807H126.845V6.17814H131.007Z" fill="#7E6524"/>
</g>
<defs>
<clipPath id="clip0_348_401">
<rect width="155" height="27" fill="white"/>
</clipPath>
</defs>
</svg>
