<svg width="158" height="27" viewBox="0 0 158 27" fill="none" xmlns="http://www.w3.org/2000/svg">
<path d="M8.75507 19.6856C6.30689 19.6856 4.23162 18.849 2.52924 17.1757C0.843081 15.5024 0 13.3862 0 10.8271C0 8.26797 0.843081 6.15997 2.52924 4.50309C4.23162 2.82981 6.30689 1.99317 8.75507 1.99317C11.2195 1.99317 13.2866 2.82981 14.9566 4.50309C16.6427 6.15997 17.4858 8.26797 17.4858 10.8271C17.4858 12.2707 17.194 13.5995 16.6103 14.8134C16.0428 16.011 15.2565 17.0117 14.2513 17.8155L17.729 22.3432H12.6948L10.6277 19.4888C9.97916 19.62 9.35495 19.6856 8.75507 19.6856ZM5.4476 7.20987C4.63694 8.11213 4.23162 9.31787 4.23162 10.8271C4.23162 12.3363 4.63694 13.5421 5.4476 14.4443C6.27447 15.3466 7.36885 15.7977 8.73075 15.7977C10.1089 15.7977 11.2032 15.3466 12.0139 14.4443C12.8408 13.5421 13.2542 12.3363 13.2542 10.8271C13.2542 9.31787 12.8408 8.11213 12.0139 7.20987C11.2032 6.30761 10.1089 5.85648 8.73075 5.85648C7.36885 5.85648 6.27447 6.30761 5.4476 7.20987Z" fill="black"/>
<path d="M29.5227 5.78266H33.6814V19.5134H29.5227V17.4956C28.6634 18.9392 27.2934 19.661 25.4127 19.661C23.8562 19.661 22.5916 19.1361 21.6188 18.0862C20.6622 17.0363 20.184 15.6091 20.184 13.8046V5.78266H24.3183V13.2386C24.3183 14.1245 24.5453 14.8134 24.9993 15.3056C25.4694 15.7813 26.1098 16.0192 26.9205 16.0192C27.7312 16.0192 28.3635 15.7813 28.8174 15.3056C29.2876 14.8134 29.5227 14.1245 29.5227 13.2386V5.78266Z" fill="black"/>
<path d="M41.1279 4.23241C40.6577 4.70815 40.0822 4.94602 39.4012 4.94602C38.7203 4.94602 38.1447 4.70815 37.6745 4.23241C37.2043 3.75668 36.9693 3.17431 36.9693 2.48531C36.9693 1.77991 37.2043 1.18934 37.6745 0.713605C38.1447 0.237868 38.7203 0 39.4012 0C40.0822 0 40.6577 0.237868 41.1279 0.713605C41.5981 1.18934 41.8332 1.77991 41.8332 2.48531C41.8332 3.17431 41.5981 3.75668 41.1279 4.23241ZM37.3341 19.5134V5.78266H41.4927V19.5134H37.3341Z" fill="black"/>
<path d="M46.0232 17.7663C44.7748 16.4867 44.1506 14.7806 44.1506 12.648C44.1506 10.5154 44.7748 8.81753 46.0232 7.55437C47.2878 6.2748 48.9172 5.63502 50.9114 5.63502C52.5652 5.63502 53.9676 6.05334 55.1187 6.88998C56.2699 7.71021 57.0319 8.89135 57.4048 10.4334H52.9056C52.5165 9.61316 51.8761 9.20304 50.9844 9.20304C50.1089 9.20304 49.4523 9.52293 49.0145 10.1627C48.593 10.7861 48.3822 11.6145 48.3822 12.648C48.3822 13.6815 48.593 14.5182 49.0145 15.1579C49.4523 15.7813 50.0846 16.093 50.9114 16.093C51.4303 16.093 51.8356 16.0028 52.1274 15.8223C52.4193 15.6419 52.6787 15.322 52.9056 14.8627H57.4048C57.0319 16.3391 56.2618 17.512 55.0944 18.3815C53.9271 19.2509 52.5327 19.6856 50.9114 19.6856C48.9172 19.6856 47.2878 19.0459 46.0232 17.7663Z" fill="black"/>
<path d="M63.8886 19.5134H59.73V1.30418H63.8886V11.5161L68.0959 5.78266H73.6894L67.877 12.7957L73.6894 19.5134H68.1689L63.8886 14.026V19.5134Z" fill="black"/>
<path d="M154.139 1.354C154.719 1.354 155.275 1.49985 155.807 1.79153C156.34 2.08027 156.757 2.49571 157.06 3.03783C157.366 3.57996 157.519 4.14713 157.519 4.73934C157.519 5.3286 157.369 5.89135 157.069 6.42759C156.772 6.96087 156.356 7.37778 155.82 7.6783C155.288 7.97588 154.728 8.12467 154.139 8.12467C153.551 8.12467 152.989 7.97588 152.453 7.6783C151.921 7.37778 151.505 6.96087 151.205 6.42759C150.907 5.89135 150.759 5.3286 150.759 4.73934C150.759 4.14713 150.91 3.57996 151.213 3.03783C151.519 2.49571 151.939 2.08027 152.471 1.79153C153.004 1.49985 153.56 1.354 154.139 1.354ZM154.144 2.01693C153.679 2.01693 153.233 2.13331 152.806 2.36607C152.38 2.59883 152.043 2.93324 151.796 3.36929C151.552 3.80535 151.43 4.26203 151.43 4.73934C151.43 5.2137 151.549 5.66596 151.787 6.09612C152.028 6.52629 152.364 6.86217 152.793 7.10377C153.223 7.34537 153.673 7.46617 154.144 7.46617C154.617 7.46617 155.067 7.34537 155.494 7.10377C155.923 6.86217 156.259 6.52629 156.5 6.09612C156.741 5.66596 156.862 5.2137 156.862 4.73934C156.862 4.26203 156.738 3.80535 156.491 3.36929C156.247 2.93324 155.91 2.59883 155.481 2.36607C155.054 2.13331 154.608 2.01693 154.144 2.01693ZM152.612 6.55133V2.95828H153.34C154.023 2.95828 154.405 2.96123 154.488 2.96712C154.729 2.98774 154.916 3.03636 155.048 3.11296C155.184 3.18662 155.295 3.30153 155.384 3.45768C155.475 3.61089 155.52 3.78178 155.52 3.97035C155.52 4.22962 155.435 4.45207 155.264 4.63769C155.097 4.82036 154.86 4.9338 154.554 4.97799C154.663 5.01924 154.747 5.06491 154.806 5.115C154.864 5.16214 154.945 5.25347 155.048 5.389C155.075 5.42436 155.163 5.5702 155.313 5.82653L155.737 6.55133H154.836L154.536 5.96796C154.333 5.5761 154.166 5.33008 154.033 5.2299C153.901 5.12678 153.733 5.07522 153.53 5.07522H153.34V6.55133H152.612ZM153.34 4.50952H153.636C154.057 4.50952 154.317 4.49332 154.417 4.46091C154.52 4.4285 154.601 4.37252 154.66 4.29297C154.719 4.21047 154.748 4.11766 154.748 4.01454C154.748 3.91437 154.719 3.82598 154.66 3.74937C154.604 3.66982 154.523 3.61384 154.417 3.58143C154.311 3.54607 154.051 3.5284 153.636 3.5284H153.34V4.50952Z" fill="black"/>
<path d="M77.5568 17.1377C75.8799 15.4728 75.0415 13.3672 75.0415 10.8209C75.0415 8.27458 75.8799 6.17715 77.5568 4.52858C79.2498 2.86369 81.3137 2.03125 83.7484 2.03125C85.6349 2.03125 87.3118 2.53725 88.779 3.54924C90.2463 4.56123 91.2702 5.96496 91.8506 7.76042H86.9167C86.2718 6.5036 85.2399 5.87518 83.821 5.87518C82.4021 5.87518 81.2814 6.32405 80.4591 7.22178C79.6529 8.11952 79.2498 9.31922 79.2498 10.8209C79.2498 12.3225 79.6529 13.5222 80.4591 14.42C81.2814 15.3177 82.4021 15.7666 83.821 15.7666C85.2399 15.7666 86.2718 15.1382 86.9167 13.8813H91.8506C91.2702 15.6768 90.2463 17.0805 88.779 18.0925C87.3118 19.1045 85.6349 19.6105 83.7484 19.6105C81.3137 19.6105 79.2498 18.7862 77.5568 17.1377Z" fill="#43729C"/>
<path d="M102.605 15.179C103.154 14.5914 103.428 13.7426 103.428 12.6327C103.428 11.5227 103.146 10.6821 102.581 10.1109C102.017 9.52325 101.348 9.22944 100.574 9.22944C99.7998 9.22944 99.1307 9.52325 98.5664 10.1109C98.0181 10.6821 97.744 11.5227 97.744 12.6327C97.744 13.7426 98.0262 14.5914 98.5905 15.179C99.171 15.7666 99.8482 16.0604 100.622 16.0604C101.396 16.0604 102.057 15.7666 102.605 15.179ZM95.5673 17.7008C94.2129 16.4113 93.5357 14.7138 93.5357 12.6082C93.5357 10.5026 94.2129 8.82138 95.5673 7.56455C96.9217 6.29141 98.5986 5.65483 100.598 5.65483C102.597 5.65483 104.266 6.29141 105.604 7.56455C106.959 8.82138 107.636 10.5026 107.636 12.6082C107.636 14.7138 106.967 16.4113 105.629 17.7008C104.29 18.9903 102.622 19.635 100.622 19.635C98.6228 19.635 96.9378 18.9903 95.5673 17.7008Z" fill="#43729C"/>
<path d="M108.587 5.80173H112.989L116.06 15.9624L119.132 5.80173H123.534L118.745 19.4636H113.376L108.587 5.80173Z" fill="#43729C"/>
<path d="M131.176 19.635C129.209 19.635 127.597 18.9984 126.339 17.7253C125.081 16.4358 124.452 14.7301 124.452 12.6082C124.452 10.4863 125.073 8.7969 126.315 7.54007C127.572 6.28324 129.193 5.65483 131.176 5.65483C133.159 5.65483 134.804 6.27508 136.11 7.51559C137.416 8.75609 138.069 10.4781 138.069 12.6816C138.069 13.155 138.037 13.5957 137.972 14.0038H128.685C128.765 14.6077 129.032 15.1055 129.483 15.4973C129.934 15.8727 130.418 16.0604 130.934 16.0604C131.466 16.0604 131.861 16.0114 132.119 15.9135C132.377 15.7992 132.563 15.6931 132.676 15.5952C132.805 15.4809 132.966 15.3014 133.159 15.0566H137.634C137.247 16.4276 136.473 17.5376 135.312 18.3863C134.151 19.2188 132.772 19.635 131.176 19.635ZM133.764 11.384C133.699 10.7474 133.425 10.2333 132.942 9.84153C132.458 9.43347 131.885 9.22944 131.224 9.22944C130.563 9.22944 130.007 9.43347 129.556 9.84153C129.104 10.2333 128.822 10.7474 128.709 11.384H133.764Z" fill="#43729C"/>
<path d="M144.861 5.80173V8.34803C145.829 6.55256 147.119 5.65483 148.731 5.65483V9.91498H147.715C146.764 9.91498 146.046 10.1435 145.563 10.6005C145.095 11.0576 144.861 11.8574 144.861 12.9999V19.4636H140.725V5.80173H144.861Z" fill="#43729C"/>
</svg>
