<svg width="110" height="80" viewBox="0 0 110 80" fill="none" xmlns="http://www.w3.org/2000/svg">

  <path
    d="M17.2562 30.1831C11.5972 30.1831 7 34.7699 7 40.416C7 46.0621 11.5972 50.6489 17.2562 50.6489C22.9152 50.6489 27.5124 46.0621 27.5124 40.416C27.5124 34.7699 22.9152 30.1831 17.2562 30.1831ZM17.2562 49.6234C12.162 49.6234 8.02788 45.4874 8.02788 40.416C8.02788 35.3446 12.162 31.2087 17.2562 31.2087C22.3504 31.2087 26.4845 35.3446 26.4845 40.416C26.4845 45.4874 22.3504 49.6234 17.2562 49.6234Z"
    fill="black" />
  <path
    d="M20.9159 33.857C20.882 33.8344 20.8368 33.8232 20.7916 33.8232C20.6561 33.8232 20.5544 33.9246 20.5544 34.0598V37.2604C20.5544 37.3731 20.4641 37.4633 20.3511 37.4633H14.1387C14.0257 37.4633 13.9466 37.3731 13.9353 37.2604V34.0598C13.9353 34.0147 13.924 33.9809 13.9015 33.9358C13.8337 33.8232 13.6868 33.7893 13.5739 33.857C11.2809 35.2657 9.8916 37.7112 9.8916 40.4159C9.8916 43.1207 11.2809 45.5662 13.5965 46.9749C13.6304 46.9975 13.6756 47.0087 13.7207 47.0087C13.8563 47.0087 13.9579 46.9073 13.9579 46.7721V43.5715C13.9579 43.4588 14.0483 43.3799 14.1613 43.3686H20.3737C20.4867 43.3686 20.577 43.4588 20.577 43.5715V46.7721C20.577 46.8171 20.5883 46.8509 20.6109 46.896C20.6787 47.0087 20.8255 47.0425 20.9385 46.9749C23.254 45.5662 24.6434 43.1207 24.6434 40.4159C24.6434 37.7112 23.2314 35.2657 20.9159 33.857V33.857ZM12.7606 44.428L12.7945 44.8111L12.546 44.5068C10.6371 42.1064 10.6371 38.7142 12.546 36.3138L12.7606 36.0433L12.7945 36.0095L12.7606 36.4039C12.7267 36.7195 12.7154 37.0463 12.7154 37.3731V43.4475C12.7154 43.7743 12.738 44.1011 12.7606 44.428ZM20.5544 41.9486C20.5544 42.0613 20.4641 42.1515 20.3511 42.1515H14.1387C14.0257 42.1515 13.9466 42.0613 13.9353 41.9486V38.8833C13.9353 38.7706 14.0257 38.6804 14.1387 38.6804H20.3511C20.4641 38.6804 20.5544 38.7706 20.5544 38.8833V41.9486ZM21.9551 44.5068L21.7066 44.8111L21.7404 44.428C21.7743 44.1124 21.7856 43.7856 21.7856 43.4588V37.3731C21.7856 37.0463 21.7743 36.7195 21.7404 36.4039L21.7292 36.2349L21.7179 36.0546V36.0095L21.9551 36.3138C22.8813 37.4633 23.3896 38.9283 23.3896 40.4047C23.3896 41.881 22.8813 43.3573 21.9551 44.5068V44.5068Z"
    fill="black" />
  <path
    d="M42.987 40.2358C42.9306 40.2133 42.8628 40.1908 42.8628 40.1231C42.8628 40.0781 42.8854 40.0442 42.9306 40.0217C43.0096 39.9879 44.9637 39.2892 44.9637 36.9902C44.9637 34.4319 43.2355 32.9105 40.3213 32.9105H33.2617V47.9443H40.9652C43.213 47.9443 45.6302 46.3553 45.6302 43.7971C45.6302 41.3515 43.7777 40.495 42.987 40.2358V40.2358ZM36.8198 35.9871C36.8198 35.9308 36.8649 35.8857 36.9214 35.8857H39.7227C40.6489 35.8857 41.2814 36.5056 41.2814 37.4297C41.2814 38.1509 40.7167 38.9285 39.6549 38.9285H36.9214C36.8649 38.9285 36.8198 38.8835 36.8198 38.8271V35.9871ZM39.7227 44.9804H36.9214C36.8649 44.9804 36.8198 44.9353 36.8198 44.879V41.8812C36.8198 41.8249 36.8649 41.7798 36.9214 41.7798H39.6549C40.9991 41.7798 41.7671 42.3545 41.7671 43.3688C41.7671 44.4169 41.0555 44.9804 39.7227 44.9804V44.9804ZM69.4747 38.8947L68.9325 38.782C67.7126 38.5228 66.5266 38.196 66.5266 37.1479C66.5266 36.0998 67.5093 35.6265 68.4807 35.6265C69.6215 35.6265 70.7511 36.1337 71.6095 37.0127L73.846 34.8038C72.8859 33.7445 71.1803 32.5273 68.4242 32.5273C65.1034 32.5273 62.8669 34.4094 62.8669 37.2155C62.8669 40.1795 65.2051 41.2952 67.1705 41.7122L67.7013 41.8249C69.6103 42.2306 70.5139 42.5349 70.5139 43.6167C70.5139 44.5859 69.6441 45.2283 68.3565 45.2283C66.8429 45.2283 65.4987 44.5634 64.4821 43.3125L62.1892 45.5551C63.4091 46.9977 65.0243 48.305 68.4016 48.305C71.282 48.305 74.2075 46.637 74.2075 43.4364C74.1962 40.1569 71.9597 39.4131 69.4747 38.8947V38.8947ZM99.238 32.9105V38.4101C99.238 38.4665 99.1929 38.5116 99.1364 38.5116H94.5053C94.4488 38.5116 94.4036 38.4665 94.4036 38.4101V32.9105H90.6084V47.9443H94.4036V42.039C94.4036 41.9826 94.4488 41.9376 94.5053 41.9376H99.1364C99.1929 41.9376 99.238 41.9826 99.238 42.039V47.9443H103.056V32.9105H99.238ZM82.9727 44.8677C81.2671 44.8677 79.4259 43.4477 79.4259 40.326C79.4259 37.4748 81.1541 35.9871 82.8597 35.9871C84.1022 35.9871 84.972 36.5056 85.661 37.6551L88.5752 35.7279C87.0842 33.5416 85.3108 32.5499 82.8371 32.5499C77.9914 32.5499 75.8227 36.4605 75.8227 40.326C75.8227 45.0255 78.6917 48.305 82.792 48.305C85.8417 48.305 87.231 47.1893 88.6882 45.1269L85.7514 43.1547C85.0962 44.214 84.3846 44.8677 82.9727 44.8677ZM54.1582 32.5273C50.0128 32.5273 47.2341 35.6941 47.2341 40.4161C47.2341 45.1382 50.0128 48.305 54.1582 48.305C58.3036 48.305 61.0822 45.1382 61.0822 40.4161C61.0822 35.6941 58.3036 32.5273 54.1582 32.5273V32.5273ZM54.1582 44.8677C52.125 44.8677 50.8147 43.1209 50.8147 40.4161C50.8147 37.7227 52.125 35.9871 54.1582 35.9871C56.2026 35.9871 57.5242 37.7227 57.5242 40.4161C57.5242 43.1209 56.2026 44.8677 54.1582 44.8677Z"
    fill="black" />
</svg>