<svg width="110" height="80" viewBox="0 0 110 80" fill="none" xmlns="http://www.w3.org/2000/svg">

  <path
    d="M55.1724 68.4349C55.0898 68.3287 54.9719 68.3523 54.8657 68.3287C53.3915 67.9631 52.4479 67.0432 52.1295 65.5571C51.8936 64.4367 52.0705 63.3635 52.7664 62.4199C53.415 61.5472 54.2878 61.099 55.3611 61.0165C55.9036 60.9693 56.4579 60.9929 56.9886 61.1344C57.4958 61.2641 57.9439 61.5118 58.3449 61.9128C58.1326 62.1487 57.9204 62.3846 57.7199 62.5969C57.6019 62.6204 57.5665 62.5615 57.5194 62.5143C57.0004 62.0779 56.4107 61.9128 55.7385 61.901C55.0426 61.8892 54.4411 62.1133 53.934 62.5733C53.533 62.9389 53.2735 63.3988 53.1556 63.9178C52.9551 64.7552 53.0376 65.5454 53.5212 66.2766C54.1345 67.1965 55.0072 67.5621 56.0923 67.4914C56.4343 67.4678 56.7881 67.4206 57.1184 67.3027C57.2481 67.2555 57.3896 67.2083 57.5194 67.114C57.5194 66.4889 57.5194 65.852 57.5194 65.1797C57.0122 65.1797 56.5051 65.1797 55.9861 65.1797C55.939 64.8731 55.9626 64.59 55.9743 64.3188C56.1866 64.2598 57.9675 64.2362 58.4629 64.2834C58.5218 64.4957 58.5454 66.937 58.4983 67.739C58.3449 67.857 58.1562 67.9395 57.9557 68.0103C57.5429 68.1636 57.1066 68.2698 56.6702 68.3405C56.623 68.3523 56.5523 68.3287 56.5287 68.3995C56.0805 68.4349 55.6205 68.4349 55.1724 68.4349Z"
    fill="black" />
  <path
    d="M88.1721 68.2697C88.1013 68.2697 88.0423 68.2579 87.9716 68.2579C86.5681 68.2579 85.1646 68.2579 83.7611 68.2579C83.655 68.2579 83.5606 68.2579 83.4663 68.2579C83.4191 68.022 83.4073 61.5707 83.4427 61.2287C83.6432 61.1815 87.547 61.1579 87.9834 61.2169C88.007 61.4881 87.9952 61.7712 87.9952 62.0424C87.889 62.125 87.7829 62.1014 87.6885 62.1014C86.6978 62.1014 85.7071 62.1014 84.7164 62.1014C84.6103 62.1014 84.5159 62.0896 84.398 62.125C84.398 62.809 84.398 63.4813 84.398 64.1889C84.7754 64.2007 85.141 64.1889 85.5066 64.1889C85.8723 64.1889 86.2379 64.1889 86.6153 64.1889C86.9809 64.1889 87.3465 64.1889 87.7239 64.1889C87.7593 64.4956 87.7475 64.7786 87.7357 65.0853C86.6153 65.1089 85.5184 65.0853 84.4098 65.1089C84.4098 65.8519 84.4098 66.5713 84.4098 67.3026C84.5041 67.3969 84.6221 67.3497 84.7282 67.3497C85.7543 67.3497 86.7804 67.3497 87.8065 67.3497C87.9244 67.3497 88.0541 67.3615 88.1721 67.3615C88.1721 67.6682 88.1721 67.963 88.1721 68.2697Z"
    fill="black" />
  <path
    d="M23.8122 68.4351C23.6471 68.3525 23.4584 68.3761 23.2933 68.3289C22.8451 68.1992 22.4205 68.0341 22.0903 67.6921C22.0431 67.6449 21.996 67.5977 21.9606 67.5387C21.937 67.5151 21.9252 67.4798 21.9016 67.4326C22.1493 67.2203 22.397 66.9962 22.6446 66.7957C22.739 66.7957 22.7744 66.8665 22.8097 66.9137C23.2461 67.4562 24.2722 67.7628 25.0506 67.2675C25.4044 67.0434 25.5931 66.7249 25.5813 66.3004C25.5695 66.0409 25.4752 65.8286 25.2511 65.6753C25.0388 65.522 24.7911 65.404 24.5435 65.3215C24.2486 65.2271 23.9538 65.1328 23.6589 65.0266C23.1754 64.8615 22.7508 64.6138 22.4441 64.1892C21.9724 63.5642 21.9016 62.3022 22.739 61.5946C23.1636 61.2289 23.6471 61.0402 24.2014 61.0049C24.6614 60.9695 25.1214 61.0049 25.5695 61.1346C25.9469 61.2407 26.2654 61.4648 26.5249 61.7951C26.2772 62.0191 26.0295 62.255 25.7936 62.4673C25.6757 62.4673 25.6521 62.3848 25.6049 62.3376C25.3337 62.0545 24.9916 61.913 24.5906 61.9012C24.3076 61.8894 24.0245 61.913 23.7651 62.0192C23.2933 62.2314 23.0338 62.715 23.14 63.2221C23.1872 63.4226 23.2933 63.5877 23.4466 63.7175C23.7415 63.9534 24.0835 64.0713 24.4373 64.1774C24.8619 64.3072 25.2983 64.4015 25.6757 64.6374C26.1239 64.9087 26.4659 65.2625 26.5484 65.7932C26.7254 66.9844 26.171 67.869 25.1214 68.2582C24.9327 68.3289 24.7204 68.3289 24.5317 68.4233C24.2958 68.4351 24.0599 68.4351 23.8122 68.4351Z"
    fill="black" />
  <path
    d="M53.5921 53.2324C53.1085 51.4043 52.6367 49.588 52.1532 47.7599C52.3065 47.6892 52.4598 47.6184 52.6014 47.5477C53.5095 47.0877 54.453 46.6985 55.3729 46.2739C57.661 45.2124 59.7957 43.9151 61.8125 42.4055C63.5816 41.0845 65.2681 39.6575 66.7895 38.0417C67.9689 36.7915 69.054 35.4588 69.9031 33.961C70.7051 32.5339 71.2948 31.0361 71.5661 29.4203C71.8963 27.4861 71.684 25.6226 70.7995 23.8535C69.8678 21.9901 68.4643 20.5866 66.6126 19.6313C65.3625 18.9826 64.0533 18.6052 62.6616 18.4401C61.6474 18.3222 60.6331 18.3104 59.607 18.4165C57.9676 18.5816 56.3872 19.0062 54.854 19.6077C52.4009 20.5512 50.0892 21.7896 47.872 23.1931C47.1054 23.6884 46.327 24.1602 45.6075 24.7381C45.065 25.1745 44.5579 25.658 44.1215 26.2005C43.8148 26.5897 43.6026 27.0261 43.5082 27.5215C43.3785 28.2291 43.7795 28.9721 44.7348 29.0429C45.065 29.0665 45.3952 29.0075 45.7019 28.9014C46.3152 28.7009 46.8813 28.3942 47.4474 28.0994C48.5089 27.5333 49.4995 26.8728 50.5138 26.2241C51.7404 25.4457 52.967 24.6555 54.2525 23.9951C55.2904 23.4643 56.3636 23.028 57.5077 22.7921C58.9937 22.4972 60.4444 22.5798 61.8243 23.2167C63.3103 23.9007 64.2302 25.0683 64.5605 26.6723C64.761 27.6276 64.5841 28.5711 64.242 29.4793C63.8882 30.4464 63.2985 31.2838 62.6263 32.0504C61.3879 33.4656 59.949 34.6568 58.345 35.6239C56.6703 36.6264 54.9955 37.6289 53.2854 38.5606C51.5635 39.5042 49.759 40.2236 47.8956 40.8133C46.9992 41.0963 46.1029 41.3794 45.1712 41.5799C43.921 41.8512 42.659 41.9809 41.3853 41.9337C39.9936 41.8747 38.6373 41.6271 37.3635 41.0138C35.1934 39.9641 33.8018 38.2776 33.1885 35.9542C32.9644 35.105 32.8582 34.2322 32.87 33.3477C32.8936 31.6965 33.2474 30.0926 33.8489 28.5593C34.474 26.9789 35.3586 25.5401 36.3728 24.1838C37.6584 22.4618 39.168 20.964 40.8074 19.5959C42.659 18.0509 44.605 16.6474 46.6808 15.409C47.6479 14.8311 48.6386 14.3122 49.6293 13.7815C49.6529 13.7697 49.6765 13.7579 49.7354 13.7461C49.9831 14.265 50.2426 14.784 50.4902 15.3029C50.4077 15.4326 50.2897 15.4562 50.1954 15.5152C49.016 16.1403 47.8366 16.7771 46.6926 17.4848C44.1805 19.0652 41.857 20.8697 39.8167 23.028C38.425 24.5022 37.3046 26.1652 36.5733 28.064C36.1488 29.1608 35.9129 30.3048 35.9247 31.4842C35.9365 32.3098 36.0426 33.1236 36.3257 33.902C36.7738 35.1522 37.564 36.1075 38.708 36.7915C39.6398 37.3459 40.6541 37.6289 41.7273 37.7233C43.4138 37.8766 45.0296 37.5581 46.6218 37.0628C48.9688 36.3316 51.1743 35.3055 53.309 34.1025C54.5356 33.4067 55.7622 32.6872 56.918 31.8852C57.7435 31.3191 58.4984 30.6587 59.1824 29.9274C59.5244 29.5618 59.8075 29.1726 59.9962 28.7127C60.1849 28.2645 60.2675 27.8045 60.1495 27.3328C59.9726 26.578 59.4537 26.1416 58.7224 25.9647C58.1445 25.8113 57.5666 25.8703 56.9887 26.0472C56.3519 26.2477 55.7622 26.5426 55.1842 26.8492C54.1582 27.3917 53.1793 28.005 52.2004 28.6301C50.903 29.4675 49.5939 30.3048 48.2258 31.0243C47.353 31.4842 46.4685 31.8852 45.5132 32.1447C44.7584 32.3452 44.0035 32.4396 43.2134 32.3452C41.8217 32.1683 40.6541 31.272 40.3828 29.7151C40.2766 29.0901 40.3474 28.4768 40.5125 27.8635C40.7956 26.802 41.3499 25.8939 42.0575 25.0683C42.9657 24.0069 44.0153 23.0987 45.1712 22.3203C47.412 20.8107 49.7118 19.4072 52.165 18.275C53.9577 17.4376 55.8093 16.7182 57.7317 16.2464C58.8404 15.9752 59.9608 15.7865 61.1048 15.6921C61.9776 15.6213 62.8385 15.6095 63.7113 15.6567C66.6716 15.8218 69.4314 16.6238 71.8727 18.3457C74.149 19.9615 75.7765 22.0726 76.6729 24.7263C77.1329 26.0944 77.2744 27.4979 77.239 28.9367C77.2036 30.3638 76.9088 31.7437 76.4724 33.0882C75.7058 35.4942 74.4556 37.6289 72.9224 39.6103C71.7312 41.1671 70.3513 42.547 68.9124 43.8679C67.9335 44.7643 66.9429 45.6606 65.8932 46.4744C64.1595 47.8189 62.3196 48.9983 60.4208 50.0952C58.6163 51.133 56.7057 51.994 54.7715 52.7606C54.3705 52.9021 54.0048 53.0672 53.5921 53.2324Z"
    fill="black" />
  <path
    d="M47.754 68.1871C47.7069 68.2579 47.6715 68.2579 47.6361 68.2579C47.3177 68.2579 46.9992 68.2579 46.669 68.2579C46.4331 67.68 46.1972 67.1021 45.9613 66.536C45.7255 66.5006 43.0129 66.4888 42.6001 66.5242C42.376 67.0785 42.1401 67.6564 41.9042 68.2343C41.5386 68.2343 41.1848 68.2343 40.831 68.2343C40.8192 68.2225 40.8192 68.2225 40.8192 68.2107C40.8192 68.1989 40.8074 68.1871 40.8074 68.1871C40.8192 68.14 40.831 68.0928 40.8546 68.0574C41.857 65.7694 42.8713 63.4931 43.8738 61.1933C44.1687 61.1815 44.4635 61.1697 44.7702 61.1933C45.7726 63.5403 46.7633 65.8755 47.754 68.1871ZM42.9539 65.6278C43.2251 65.675 45.3009 65.675 45.5368 65.6278C45.5132 65.4155 44.4399 62.7383 44.263 62.4553C43.8266 63.5167 43.3903 64.5664 42.9539 65.6278Z"
    fill="black" />
  <path
    d="M66.2471 61.1931C66.5419 61.1931 66.8132 61.1931 67.1199 61.1931C68.1223 63.5283 69.113 65.8635 70.1155 68.1987C69.9032 68.2695 69.3607 68.2813 68.9951 68.2223C68.7592 67.6562 68.5351 67.0901 68.2993 66.5122C67.1788 66.5122 66.0702 66.5122 64.9498 66.5122C64.7139 67.0783 64.4898 67.6562 64.2539 68.2341C63.8883 68.2341 63.5345 68.2341 63.1807 68.2341C63.216 67.9982 65.8815 61.9008 66.2471 61.1931ZM66.6363 62.4197C66.4004 62.9976 66.1645 63.5165 65.9523 64.0591C65.74 64.5898 65.5041 65.0969 65.3154 65.6512C66.023 65.7102 67.6978 65.6866 67.9336 65.6159C67.4973 64.5544 67.0845 63.5165 66.6363 62.4197Z"
    fill="black" />
  <path
    d="M36.5262 67.3967C36.5498 67.668 36.5498 67.9511 36.5262 68.2223C36.314 68.2695 32.1743 68.2813 31.8322 68.2459C31.7733 68.0454 31.7615 61.7592 31.8087 61.2521C32.0091 61.1931 35.7714 61.1695 36.314 61.2285C36.3729 61.429 36.3847 61.8064 36.3257 62.113C35.1463 62.113 33.9669 62.113 32.764 62.113C32.764 62.8207 32.764 63.4929 32.764 64.1888C33.0352 64.236 33.3065 64.2124 33.5777 64.2124C33.8608 64.2124 34.1439 64.2124 34.4269 64.2124C34.6982 64.2124 34.9694 64.2124 35.2525 64.2124C35.5238 64.2124 35.795 64.2124 36.0781 64.2124C36.0781 64.519 36.0781 64.8021 36.0781 65.1087C35.7125 65.1205 35.3468 65.1087 34.9812 65.1205C34.6156 65.1205 34.25 65.1205 33.8726 65.1205C33.507 65.1205 33.1414 65.1205 32.764 65.1205C32.764 65.8753 32.764 66.5948 32.764 67.326C32.8583 67.4203 32.9763 67.3732 33.0824 67.3732C34.1203 67.3732 35.1581 67.3732 36.196 67.3732C36.3022 67.3496 36.4083 67.326 36.5262 67.3967Z"
    fill="black" />
  <path
    d="M75.3873 62.1013C74.6207 62.1013 73.8895 62.1013 73.1347 62.1013C73.0993 61.8064 73.1229 61.5233 73.1111 61.2521C73.1347 61.2285 73.1347 61.2285 73.1465 61.2167C73.1583 61.2049 73.1583 61.2049 73.1701 61.2049C73.2408 61.2049 73.2998 61.1931 73.3706 61.1931C75.0925 61.1931 76.8144 61.1931 78.5481 61.2049C78.5599 61.2049 78.5835 61.2167 78.6071 61.2403C78.6307 61.5115 78.6189 61.7828 78.6189 62.0895C77.8641 62.0895 77.1328 62.0895 76.4134 62.0895C76.319 62.2192 76.3544 62.3371 76.3544 62.4433C76.3544 64.2713 76.3544 66.0994 76.3544 67.9275C76.3544 68.0336 76.378 68.1398 76.319 68.2459C76.0242 68.2459 75.7293 68.2459 75.4109 68.2459C75.3755 67.9511 75.3991 67.668 75.3991 67.3732C75.3991 67.0783 75.3991 66.7835 75.3991 66.5004C75.3991 66.2056 75.3991 65.9107 75.3991 65.6277C75.3991 65.3446 75.3991 65.0615 75.3991 64.7785C75.3991 64.4836 75.3991 64.1888 75.3991 63.9057C75.3991 63.6109 75.3991 63.316 75.3991 63.033C75.3873 62.7263 75.3873 62.4315 75.3873 62.1013Z"
    fill="black" />
</svg>