<svg width="42" height="42" viewBox="0 0 42 42" fill="none" xmlns="http://www.w3.org/2000/svg">
<path d="M10.9449 8.00153C5.39335 13.5547 5.39335 22.5563 10.9449 28.1095L20.9997 38.1643L31.0529 28.1079C36.6061 22.5547 36.6061 13.5531 31.0529 7.99993C25.5014 2.44833 16.4981 2.44833 10.9449 8.00149V8.00153ZM28.7153 25.7687C24.4545 30.0295 17.5465 30.0295 13.2857 25.7687C9.02495 21.5063 9.02495 14.5999 13.2857 10.3391C17.5465 6.07833 24.4545 6.07833 28.7153 10.3391C32.9761 14.5999 32.9761 21.5079 28.7153 25.7687Z" fill="#4A86E8"/>
<path d="M28.7398 18.0548C28.7398 22.33 25.2757 25.7956 21.0006 25.7956C16.7254 25.7956 13.2598 22.3299 13.2598 18.0548C13.2598 13.7796 16.7254 10.314 21.0006 10.314C25.2757 10.314 28.7398 13.7796 28.7398 18.0548Z" fill="#4A86E8"/>
</svg>
